<?xml version="1.0" encoding="UTF-8"?>
<svg version="1.1" xmlns="http://www.w3.org/2000/svg" width="264" height="261">
<path d="M0 0 C0.78647919 0.00337372 1.57295837 0.00674744 2.38327026 0.01022339 C14.69458887 0.08653612 26.41423018 0.77522913 38.25 4.4375 C39.43601807 4.79956543 39.43601807 4.79956543 40.64599609 5.16894531 C74.22308563 15.76802658 101.93272899 39.24374368 118.48901367 70.27661133 C123.1185689 79.31324376 126.48677177 88.67992036 129.25 98.4375 C129.76240234 100.20480469 129.76240234 100.20480469 130.28515625 102.0078125 C137.90998525 134.28034456 131.16362168 170.52146137 114.30908203 198.74707031 C108.8965846 207.38610493 102.22898061 215.04295838 95.25 222.4375 C94.56550781 223.18644531 93.88101563 223.93539062 93.17578125 224.70703125 C74.15033994 244.78748779 47.19437658 256.15452674 20.25 260.4375 C19.03763672 260.63472656 19.03763672 260.63472656 17.80078125 260.8359375 C-16.02972932 265.20497377 -52.59269197 256.81097748 -79.74609375 235.87109375 C-84.25188619 232.22075735 -88.56068916 228.44617721 -92.75 224.4375 C-93.55824219 223.70402344 -94.36648437 222.97054687 -95.19921875 222.21484375 C-110.96414168 207.39037148 -121.75115535 187.06811309 -127.75 166.4375 C-127.96172852 165.71594727 -128.17345703 164.99439453 -128.39160156 164.25097656 C-137.30150811 132.26850694 -132.43138511 95.86470961 -116.375 67 C-99.73703859 38.22790501 -74.1223615 16.88979252 -42.75 6.125 C-42.08766357 5.89458008 -41.42532715 5.66416016 -40.74291992 5.42675781 C-27.34482596 1.09175271 -13.99024166 -0.1171314 0 0 Z " fill="#FEFEFC" transform="translate(131.75,-0.4375)"/>
<path d="M0 0 C0.78647919 0.00337372 1.57295837 0.00674744 2.38327026 0.01022339 C14.69458887 0.08653612 26.41423018 0.77522913 38.25 4.4375 C39.43601807 4.79956543 39.43601807 4.79956543 40.64599609 5.16894531 C74.22308563 15.76802658 101.93272899 39.24374368 118.48901367 70.27661133 C123.1185689 79.31324376 126.48677177 88.67992036 129.25 98.4375 C129.76240234 100.20480469 129.76240234 100.20480469 130.28515625 102.0078125 C137.90998525 134.28034456 131.16362168 170.52146137 114.30908203 198.74707031 C108.8965846 207.38610493 102.22898061 215.04295838 95.25 222.4375 C94.56550781 223.18644531 93.88101563 223.93539062 93.17578125 224.70703125 C74.15033994 244.78748779 47.19437658 256.15452674 20.25 260.4375 C19.03763672 260.63472656 19.03763672 260.63472656 17.80078125 260.8359375 C-16.02972932 265.20497377 -52.59269197 256.81097748 -79.74609375 235.87109375 C-84.25188619 232.22075735 -88.56068916 228.44617721 -92.75 224.4375 C-93.55824219 223.70402344 -94.36648437 222.97054687 -95.19921875 222.21484375 C-110.96414168 207.39037148 -121.75115535 187.06811309 -127.75 166.4375 C-127.96172852 165.71594727 -128.17345703 164.99439453 -128.39160156 164.25097656 C-137.30150811 132.26850694 -132.43138511 95.86470961 -116.375 67 C-99.73703859 38.22790501 -74.1223615 16.88979252 -42.75 6.125 C-42.08766357 5.89458008 -41.42532715 5.66416016 -40.74291992 5.42675781 C-27.34482596 1.09175271 -13.99024166 -0.1171314 0 0 Z M-35.75 5.4375 C-36.76562012 5.71037842 -36.76562012 5.71037842 -37.80175781 5.98876953 C-69.38461495 14.81084071 -97.40435267 37.11432439 -113.75 65.4375 C-124.92325031 85.57365981 -131.1777577 107.68364207 -131.0625 130.75 C-131.05686035 131.93988525 -131.0512207 133.12977051 -131.04541016 134.35571289 C-130.92446011 143.12099836 -130.14620703 150.97391591 -127.75 159.4375 C-127.45198486 160.57445312 -127.45198486 160.57445312 -127.14794922 161.734375 C-124.00116418 173.72751527 -119.87263756 184.65058177 -113.75 195.4375 C-112.91855469 196.91089844 -112.91855469 196.91089844 -112.0703125 198.4140625 C-93.95619612 228.48869592 -63.48155245 248.94072637 -29.75 257.4375 C-19.97238257 259.18735957 -10.31429282 259.78453551 -0.39819336 259.75317383 C1.6836359 259.75000588 3.7640467 259.77363595 5.84570312 259.79882812 C19.56129312 259.86582584 32.44687288 257.64087481 45.3125 252.75 C46.24368652 252.40187256 47.17487305 252.05374512 48.13427734 251.69506836 C65.5253187 245.0245525 79.68547959 235.21767739 93.25 222.4375 C93.92546875 221.82648438 94.6009375 221.21546875 95.296875 220.5859375 C113.41601513 203.55394577 124.21470757 179.40355533 129.25 155.4375 C129.5903125 153.83261719 129.5903125 153.83261719 129.9375 152.1953125 C133.19547686 133.68819396 132.13433418 114.52197808 127.25 96.4375 C127.06808105 95.76041992 126.88616211 95.08333984 126.69873047 94.38574219 C117.33610579 60.86771319 93.56258328 33.45882466 63.57666016 16.55200195 C56.07505622 12.46391144 48.55223898 9.23944322 40.375 6.75 C39.53702881 6.49387939 38.69905762 6.23775879 37.83569336 5.97387695 C31.95571771 4.31816325 28.67612527 4.16812203 23.13671875 7.06640625 C22.08097656 7.70449219 21.02523437 8.34257812 19.9375 9 C18.86886719 9.64066406 17.80023438 10.28132812 16.69921875 10.94140625 C15.89097656 11.43511719 15.08273438 11.92882813 14.25 12.4375 C14.56571252 19.98126515 14.56571252 19.98126515 18.0234375 26.37109375 C18.71695313 26.88800781 19.41046875 27.40492187 20.125 27.9375 C24.73062027 31.37108071 25.59879465 34.66677526 27.1484375 40.0703125 C29.29738064 46.63906777 32.76325514 52.50645454 36.25 58.4375 C36.81895996 59.44321045 36.81895996 59.44321045 37.39941406 60.46923828 C39.96141362 64.92121999 42.50472235 68.89189854 46.25 72.4375 C49.55747687 73.15967518 52.06162673 72.97707549 55.40625 72.5546875 C59.60911523 72.3814925 61.67833215 74.01944169 64.76171875 76.70703125 C66.80804577 79.08635636 67.6123544 81.39097101 68.25 84.4375 C68.58 84.7675 68.91 85.0975 69.25 85.4375 C69.30334977 86.95796833 69.34248887 88.47894341 69.375 90 C69.82714218 95.4724795 71.88661734 97.75399614 75.66015625 101.54296875 C78.09399452 104.44324285 78.1726405 106.72424412 78.25 110.4375 C76.93 110.7675 75.61 111.0975 74.25 111.4375 C74.58 112.4275 74.91 113.4175 75.25 114.4375 C77.22746603 115.16830266 79.23072489 115.83171747 81.25 116.4375 C82.24 117.0975 83.23 117.7575 84.25 118.4375 C84.578125 120.390625 84.578125 120.390625 84.5 122.6875 C84.47421875 123.48542969 84.4484375 124.28335938 84.421875 125.10546875 C84.2140293 127.92555698 83.81813824 130.6678261 83.25 133.4375 C82.30125 133.1075 81.3525 132.7775 80.375 132.4375 C76.30737721 131.85402952 74.1176362 133.45506621 70.875 135.8125 C67.36301027 138.82429725 65.62670323 140.78936712 65.125 145.4375 C65.08599402 147.64788743 65.08599402 147.64788743 65.25 149.4375 C61.05415591 151.73844676 58.07804678 151.31735682 53.54296875 150.6640625 C50.27689568 150.34135 47.46268193 150.82230559 44.25 151.4375 C42.61057353 154.85528766 42.61057353 154.85528766 42.5 158.5625 C43.28648102 160.71539956 43.28648102 160.71539956 45.25 163.4375 C45.1953125 165.8828125 45.1953125 165.8828125 44.25 168.4375 C40.59110584 171.7672203 36.04780657 175.01632482 31.0703125 175.765625 C27.40454819 175.35656975 25.7344502 173.9219502 23.25 171.4375 C20.20788569 171.0207448 20.20788569 171.0207448 17.25 171.4375 C16.59 172.0975 15.93 172.7575 15.25 173.4375 C13.03828912 173.29527712 10.82990283 173.09926742 8.625 172.875 C3.97764406 172.75546924 2.04428891 172.72011479 -1.453125 175.87890625 C-3.4269044 178.65852724 -5.17145135 181.4176678 -6.75 184.4375 C-8.4 184.1075 -10.05 183.7775 -11.75 183.4375 C-12.75 176.8125 -12.75 176.8125 -12.75 173.4375 C-13.389375 173.14875 -14.02875 172.86 -14.6875 172.5625 C-16.75 171.4375 -16.75 171.4375 -17.75 169.4375 C-19.3278125 169.0353125 -19.3278125 169.0353125 -20.9375 168.625 C-24.75 167.4375 -24.75 167.4375 -27.75 164.8125 C-31.39650263 161.92568542 -33.21099651 161.91376883 -37.75 162.4375 C-38.41 162.7675 -39.07 163.0975 -39.75 163.4375 C-41.91490195 163.53435088 -44.08293803 163.56729438 -46.25 163.5625 C-47.4153125 163.56507813 -48.580625 163.56765625 -49.78125 163.5703125 C-52.75 163.4375 -52.75 163.4375 -54.75 162.4375 C-57.00120742 162.35176606 -59.25499303 162.33037812 -61.5078125 162.33984375 C-62.17086395 162.3412587 -62.83391541 162.34267365 -63.51705933 162.34413147 C-65.63641863 162.34973246 -67.75567259 162.362285 -69.875 162.375 C-71.31119639 162.38001488 -72.74739444 162.38457781 -74.18359375 162.38867188 C-77.70576345 162.39970218 -81.22787145 162.41696741 -84.75 162.4375 C-84.43853528 160.54149631 -84.12578283 158.64570413 -83.8125 156.75 C-83.63847656 155.69425781 -83.46445313 154.63851562 -83.28515625 153.55078125 C-82.95036897 151.60315016 -82.56949123 149.66225866 -82.12133789 147.73754883 C-81.57489165 144.35288741 -82.79771753 142.20963914 -84.1875 139.125 C-84.66058594 138.05636719 -85.13367188 136.98773438 -85.62109375 135.88671875 C-85.99363281 135.07847656 -86.36617187 134.27023438 -86.75 133.4375 C-86.19957031 133.38722656 -85.64914063 133.33695313 -85.08203125 133.28515625 C-81.67224502 132.04575321 -79.75991171 129.54359469 -77.4375 126.875 C-76.9518457 126.32924316 -76.46619141 125.78348633 -75.96582031 125.22119141 C-74.99552819 124.12872629 -74.02881045 123.03307471 -73.06591797 121.93408203 C-71.96515488 120.68219377 -70.8460502 119.44646448 -69.72265625 118.21484375 C-65.86469368 113.95446331 -62.6347782 109.47067978 -59.5234375 104.63671875 C-57.75 102.4375 -57.75 102.4375 -55.15234375 100.9375 C-52.24790922 99.12399941 -51.83091776 97.99451713 -50.9375 94.75 C-50.70417969 93.94175781 -50.47085938 93.13351563 -50.23046875 92.30078125 C-49.99263672 91.37845703 -49.99263672 91.37845703 -49.75 90.4375 C-50.430625 89.963125 -51.11125 89.48875 -51.8125 89 C-53.97802437 86.13591939 -54.00866859 85.65200803 -53.6875 82.25 C-53.18013328 78.98149021 -52.3007679 76.08433998 -51.125 73 C-48.46913249 65.57652643 -50.63751163 58.760793 -52.75 51.4375 C-53.1875 48.3125 -53.1875 48.3125 -52.75 45.4375 C-50.6875 42.9375 -50.6875 42.9375 -47.75 40.4375 C-47.18410156 39.92960937 -46.61820312 39.42171875 -46.03515625 38.8984375 C-42.7658372 35.99396587 -39.51345365 33.6752292 -35.75 31.4375 C-34.39748503 30.12362831 -33.06054623 28.79323748 -31.75 27.4375 C-29.3991992 26.2620996 -27.92972923 26.37112593 -25.3125 26.3125 C-18.04482799 25.68834767 -11.84117094 21.52867094 -6.75 16.4375 C-7.02034634 14.00032742 -7.02034634 14.00032742 -7.75 11.4375 C-8.08446556 10.10445023 -8.41800217 8.7711665 -8.75 7.4375 C-7.61820312 7.17195312 -6.48640625 6.90640625 -5.3203125 6.6328125 C-3.83845168 6.2764156 -2.3566857 5.91962424 -0.875 5.5625 C0.24455078 5.30146484 0.24455078 5.30146484 1.38671875 5.03515625 C5.73883671 4.04826121 5.73883671 4.04826121 9.25 1.4375 C-6.2654982 0.93947166 -20.71627601 1.3771267 -35.75 5.4375 Z " fill="#FEFDFB" transform="translate(131.75,-0.4375)"/>
<path d="M0 0 C0.78647919 0.00337372 1.57295837 0.00674744 2.38327026 0.01022339 C14.69458887 0.08653612 26.41423018 0.77522913 38.25 4.4375 C39.43601807 4.79956543 39.43601807 4.79956543 40.64599609 5.16894531 C74.22308563 15.76802658 101.93272899 39.24374368 118.48901367 70.27661133 C123.1185689 79.31324376 126.48677177 88.67992036 129.25 98.4375 C129.76240234 100.20480469 129.76240234 100.20480469 130.28515625 102.0078125 C137.90998525 134.28034456 131.16362168 170.52146137 114.30908203 198.74707031 C108.8965846 207.38610493 102.22898061 215.04295838 95.25 222.4375 C94.56550781 223.18644531 93.88101563 223.93539062 93.17578125 224.70703125 C74.15033994 244.78748779 47.19437658 256.15452674 20.25 260.4375 C19.03763672 260.63472656 19.03763672 260.63472656 17.80078125 260.8359375 C-16.02972932 265.20497377 -52.59269197 256.81097748 -79.74609375 235.87109375 C-84.25188619 232.22075735 -88.56068916 228.44617721 -92.75 224.4375 C-93.55824219 223.70402344 -94.36648437 222.97054687 -95.19921875 222.21484375 C-110.96414168 207.39037148 -121.75115535 187.06811309 -127.75 166.4375 C-127.96172852 165.71594727 -128.17345703 164.99439453 -128.39160156 164.25097656 C-137.30150811 132.26850694 -132.43138511 95.86470961 -116.375 67 C-99.73703859 38.22790501 -74.1223615 16.88979252 -42.75 6.125 C-42.08766357 5.89458008 -41.42532715 5.66416016 -40.74291992 5.42675781 C-27.34482596 1.09175271 -13.99024166 -0.1171314 0 0 Z M5 4.875 C1.09894705 6.16930846 -2.75812306 7.43953076 -6.75 8.4375 C-5.76 11.4075 -4.77 14.3775 -3.75 17.4375 C-5.07 18.0975 -6.39 18.7575 -7.75 19.4375 C-8.4615625 19.911875 -9.173125 20.38625 -9.90625 20.875 C-15.66676613 24.71534409 -20.28476626 26.02536166 -27.109375 26.8828125 C-30.84452602 27.66741523 -32.48887899 29.44698511 -34.75 32.4375 C-36.81198794 34.87439484 -37.90294553 35.4963252 -41 36.6875 C-45.54859402 38.54961099 -48.91633028 41.42522429 -51.75 45.4375 C-52.7889218 50.83989336 -50.90748477 55.6252928 -49.43359375 60.80859375 C-47.67845618 67.55835137 -49.21200199 71.89856693 -51.84765625 78.0703125 C-52.97871249 81.03749899 -53.28543098 83.30140428 -52.75 86.4375 C-51.0302866 89.11260973 -49.70850375 89.44994888 -46.625 90.375 C-45.67625 90.725625 -44.7275 91.07625 -43.75 91.4375 C-42.875 93.5625 -42.875 93.5625 -42.75 95.4375 C-45.06 95.1075 -47.37 94.7775 -49.75 94.4375 C-49.99363281 95.18773438 -50.23726562 95.93796875 -50.48828125 96.7109375 C-51.91331402 99.79042008 -53.28557397 100.99025487 -55.9375 103.0625 C-59.46433548 106.04545147 -61.79956863 108.82604623 -64.125 112.8125 C-67.37123166 118.27585491 -71.36051299 122.00438173 -76.1484375 126.1328125 C-79.38547352 129.00045702 -82.04390417 132.07316464 -84.75 135.4375 C-84.46125 136.159375 -84.1725 136.88125 -83.875 137.625 C-83.50375 138.553125 -83.1325 139.48125 -82.75 140.4375 C-82.358125 141.241875 -81.96625 142.04625 -81.5625 142.875 C-80.54581024 146.08148308 -80.94208753 148.20585013 -81.75 151.4375 C-82.08 151.7675 -82.41 152.0975 -82.75 152.4375 C-82.82148199 153.78993917 -82.83399454 155.14584367 -82.8125 156.5 C-82.791875 157.799375 -82.77125 159.09875 -82.75 160.4375 C-82.01885986 160.42702637 -81.28771973 160.41655273 -80.53442383 160.40576172 C-77.21048441 160.36409711 -73.88660005 160.33814044 -70.5625 160.3125 C-69.41201172 160.29574219 -68.26152344 160.27898437 -67.07617188 160.26171875 C-65.96435547 160.25527344 -64.85253906 160.24882812 -63.70703125 160.2421875 C-62.68585205 160.23171387 -61.66467285 160.22124023 -60.61254883 160.21044922 C-57.60790878 160.44877035 -55.49773936 161.24830969 -52.75 162.4375 C-49.72684925 162.71459419 -49.72684925 162.71459419 -46.625 162.625 C-45.59117188 162.61855469 -44.55734375 162.61210937 -43.4921875 162.60546875 C-40.65833023 162.55007378 -40.65833023 162.55007378 -37.75 161.4375 C-34.27497111 160.96970765 -31.81705817 160.67340616 -28.87890625 162.77734375 C-27.69555266 163.85890348 -26.54193383 164.97421739 -25.42578125 166.125 C-23.57991675 167.84857007 -23.57991675 167.84857007 -19.75 167.4375 C-19.75 166.7775 -19.75 166.1175 -19.75 165.4375 C-18.76 165.4375 -17.77 165.4375 -16.75 165.4375 C-16.42 167.4175 -16.09 169.3975 -15.75 171.4375 C-14.43 171.1075 -13.11 170.7775 -11.75 170.4375 C-11.75 169.7775 -11.75 169.1175 -11.75 168.4375 C-10.76 168.4375 -9.77 168.4375 -8.75 168.4375 C-10.625 174.1875 -10.625 174.1875 -11.75 176.4375 C-11.789992 178.43710012 -11.79346799 180.43797242 -11.75 182.4375 C-10.1 182.7675 -8.45 183.0975 -6.75 183.4375 C-6.33492188 182.6434375 -5.91984375 181.849375 -5.4921875 181.03125 C-3.46514002 177.6726274 -1.66905126 175.07474083 1.25 172.4375 C6.05042235 171.4763876 10.42115781 171.76607391 15.25 172.4375 C15.58 171.7775 15.91 171.1175 16.25 170.4375 C19.24541631 170.07220533 21.43475029 169.91187847 24.03125 171.5859375 C25.19243434 172.50775489 26.33109804 173.4589033 27.44140625 174.44140625 C29.25469026 175.64738002 29.25469026 175.64738002 31.6328125 175.3125 C34.73154067 174.2765073 36.93082932 172.80489183 39.5625 170.875 C40.44550781 170.23433594 41.32851562 169.59367188 42.23828125 168.93359375 C43.23408203 168.19302734 43.23408203 168.19302734 44.25 167.4375 C43.67547254 163.50674356 43.67547254 163.50674356 41.25 160.4375 C41.2734375 158.0546875 41.2734375 158.0546875 41.625 155.3125 C41.73585938 154.40242187 41.84671875 153.49234375 41.9609375 152.5546875 C42.05632812 151.85601562 42.15171875 151.15734375 42.25 150.4375 C44.10625 150.4684375 44.10625 150.4684375 46 150.5 C48.28510764 150.50800388 50.10322576 150.47752934 52.3125 149.875 C55.34428808 149.19040269 58.20063757 149.99395637 61.25 150.4375 C62.24 150.1075 63.23 149.7775 64.25 149.4375 C64.2190625 148.58478516 64.2190625 148.58478516 64.1875 147.71484375 C64.28937251 143.90099159 64.48943318 141.34813381 66.9921875 138.3515625 C74.66422253 131.69122439 74.66422253 131.69122439 79.375 130.9375 C80.32375 130.7725 81.2725 130.6075 82.25 130.4375 C83.97436787 126.98876426 83.74224714 123.20908369 83.25 119.4375 C80.64813084 116.33527139 77.06672544 115.56516888 73.25 114.4375 C73.82344937 111.57025314 74.1114515 110.5760485 76.25 108.4375 C75.97870856 104.24291693 74.45053837 102.17829695 71.6875 99.125 C67.95316139 94.58610876 67.74659696 92.17629464 68.25 86.4375 C67.59 85.7775 66.93 85.1175 66.25 84.4375 C66.0025 83.32375 65.755 82.21 65.5 81.0625 C64.30224592 77.58901318 63.48190354 75.94401194 60.33984375 74.0234375 C57.43579237 73.20921749 54.98378287 73.76652432 52 74.125 C46.27298957 74.33372931 46.27298957 74.33372931 43.79199219 72.16015625 C40.8280497 68.54818333 38.57663624 64.50663773 36.34912109 60.41308594 C34.77919429 57.59126281 32.98043008 54.93393995 31.1875 52.25 C29.26618645 49.30699972 27.8959371 46.90642147 27.25 43.4375 C26.59 43.4375 25.93 43.4375 25.25 43.4375 C25.23582031 42.85742188 25.22164063 42.27734375 25.20703125 41.6796875 C24.83031585 35.50970021 23.61472707 32.80222707 19.25 28.4375 C18.54875 27.839375 17.8475 27.24125 17.125 26.625 C14.73453962 23.83612955 14.02229633 21.11476141 12.9765625 17.6328125 C12.09629451 14.97307804 10.81765043 12.75165063 9.25 10.4375 C10.19875 10.56125 11.1475 10.685 12.125 10.8125 C17.57704049 10.86847578 21.9792679 7.53958106 26.25 4.4375 C26.25 4.1075 26.25 3.7775 26.25 3.4375 C18.60702586 1.52675647 12.28401068 2.36160088 5 4.875 Z M-35.75 5.4375 C-36.76562012 5.71037842 -36.76562012 5.71037842 -37.80175781 5.98876953 C-69.38461495 14.81084071 -97.40435267 37.11432439 -113.75 65.4375 C-124.92325031 85.57365981 -131.1777577 107.68364207 -131.0625 130.75 C-131.05686035 131.93988525 -131.0512207 133.12977051 -131.04541016 134.35571289 C-130.92446011 143.12099836 -130.14620703 150.97391591 -127.75 159.4375 C-127.45198486 160.57445312 -127.45198486 160.57445312 -127.14794922 161.734375 C-124.00116418 173.72751527 -119.87263756 184.65058177 -113.75 195.4375 C-112.91855469 196.91089844 -112.91855469 196.91089844 -112.0703125 198.4140625 C-93.95619612 228.48869592 -63.48155245 248.94072637 -29.75 257.4375 C-19.97238257 259.18735957 -10.31429282 259.78453551 -0.39819336 259.75317383 C1.6836359 259.75000588 3.7640467 259.77363595 5.84570312 259.79882812 C19.56129312 259.86582584 32.44687288 257.64087481 45.3125 252.75 C46.24368652 252.40187256 47.17487305 252.05374512 48.13427734 251.69506836 C65.5253187 245.0245525 79.68547959 235.21767739 93.25 222.4375 C93.92546875 221.82648438 94.6009375 221.21546875 95.296875 220.5859375 C113.41601513 203.55394577 124.21470757 179.40355533 129.25 155.4375 C129.5903125 153.83261719 129.5903125 153.83261719 129.9375 152.1953125 C133.19547686 133.68819396 132.13433418 114.52197808 127.25 96.4375 C127.06808105 95.76041992 126.88616211 95.08333984 126.69873047 94.38574219 C117.33610579 60.86771319 93.56258328 33.45882466 63.57666016 16.55200195 C56.07505622 12.46391144 48.55223898 9.23944322 40.375 6.75 C39.53702881 6.49387939 38.69905762 6.23775879 37.83569336 5.97387695 C31.95571771 4.31816325 28.67612527 4.16812203 23.13671875 7.06640625 C22.08097656 7.70449219 21.02523437 8.34257812 19.9375 9 C18.86886719 9.64066406 17.80023438 10.28132812 16.69921875 10.94140625 C15.89097656 11.43511719 15.08273438 11.92882813 14.25 12.4375 C14.56571252 19.98126515 14.56571252 19.98126515 18.0234375 26.37109375 C18.71695313 26.88800781 19.41046875 27.40492187 20.125 27.9375 C24.73062027 31.37108071 25.59879465 34.66677526 27.1484375 40.0703125 C29.29738064 46.63906777 32.76325514 52.50645454 36.25 58.4375 C36.81895996 59.44321045 36.81895996 59.44321045 37.39941406 60.46923828 C39.96141362 64.92121999 42.50472235 68.89189854 46.25 72.4375 C49.55747687 73.15967518 52.06162673 72.97707549 55.40625 72.5546875 C59.60911523 72.3814925 61.67833215 74.01944169 64.76171875 76.70703125 C66.80804577 79.08635636 67.6123544 81.39097101 68.25 84.4375 C68.58 84.7675 68.91 85.0975 69.25 85.4375 C69.30334977 86.95796833 69.34248887 88.47894341 69.375 90 C69.82714218 95.4724795 71.88661734 97.75399614 75.66015625 101.54296875 C78.09399452 104.44324285 78.1726405 106.72424412 78.25 110.4375 C76.93 110.7675 75.61 111.0975 74.25 111.4375 C74.58 112.4275 74.91 113.4175 75.25 114.4375 C77.22746603 115.16830266 79.23072489 115.83171747 81.25 116.4375 C82.24 117.0975 83.23 117.7575 84.25 118.4375 C84.578125 120.390625 84.578125 120.390625 84.5 122.6875 C84.47421875 123.48542969 84.4484375 124.28335938 84.421875 125.10546875 C84.2140293 127.92555698 83.81813824 130.6678261 83.25 133.4375 C82.30125 133.1075 81.3525 132.7775 80.375 132.4375 C76.30737721 131.85402952 74.1176362 133.45506621 70.875 135.8125 C67.36301027 138.82429725 65.62670323 140.78936712 65.125 145.4375 C65.08599402 147.64788743 65.08599402 147.64788743 65.25 149.4375 C61.05415591 151.73844676 58.07804678 151.31735682 53.54296875 150.6640625 C50.27689568 150.34135 47.46268193 150.82230559 44.25 151.4375 C42.61057353 154.85528766 42.61057353 154.85528766 42.5 158.5625 C43.28648102 160.71539956 43.28648102 160.71539956 45.25 163.4375 C45.1953125 165.8828125 45.1953125 165.8828125 44.25 168.4375 C40.59110584 171.7672203 36.04780657 175.01632482 31.0703125 175.765625 C27.40454819 175.35656975 25.7344502 173.9219502 23.25 171.4375 C20.20788569 171.0207448 20.20788569 171.0207448 17.25 171.4375 C16.59 172.0975 15.93 172.7575 15.25 173.4375 C13.03828912 173.29527712 10.82990283 173.09926742 8.625 172.875 C3.97764406 172.75546924 2.04428891 172.72011479 -1.453125 175.87890625 C-3.4269044 178.65852724 -5.17145135 181.4176678 -6.75 184.4375 C-8.4 184.1075 -10.05 183.7775 -11.75 183.4375 C-12.75 176.8125 -12.75 176.8125 -12.75 173.4375 C-13.389375 173.14875 -14.02875 172.86 -14.6875 172.5625 C-16.75 171.4375 -16.75 171.4375 -17.75 169.4375 C-19.3278125 169.0353125 -19.3278125 169.0353125 -20.9375 168.625 C-24.75 167.4375 -24.75 167.4375 -27.75 164.8125 C-31.39650263 161.92568542 -33.21099651 161.91376883 -37.75 162.4375 C-38.41 162.7675 -39.07 163.0975 -39.75 163.4375 C-41.91490195 163.53435088 -44.08293803 163.56729438 -46.25 163.5625 C-47.4153125 163.56507813 -48.580625 163.56765625 -49.78125 163.5703125 C-52.75 163.4375 -52.75 163.4375 -54.75 162.4375 C-57.00120742 162.35176606 -59.25499303 162.33037812 -61.5078125 162.33984375 C-62.17086395 162.3412587 -62.83391541 162.34267365 -63.51705933 162.34413147 C-65.63641863 162.34973246 -67.75567259 162.362285 -69.875 162.375 C-71.31119639 162.38001488 -72.74739444 162.38457781 -74.18359375 162.38867188 C-77.70576345 162.39970218 -81.22787145 162.41696741 -84.75 162.4375 C-84.43853528 160.54149631 -84.12578283 158.64570413 -83.8125 156.75 C-83.63847656 155.69425781 -83.46445313 154.63851562 -83.28515625 153.55078125 C-82.95036897 151.60315016 -82.56949123 149.66225866 -82.12133789 147.73754883 C-81.57489165 144.35288741 -82.79771753 142.20963914 -84.1875 139.125 C-84.66058594 138.05636719 -85.13367188 136.98773438 -85.62109375 135.88671875 C-85.99363281 135.07847656 -86.36617187 134.27023438 -86.75 133.4375 C-86.19957031 133.38722656 -85.64914063 133.33695313 -85.08203125 133.28515625 C-81.67224502 132.04575321 -79.75991171 129.54359469 -77.4375 126.875 C-76.9518457 126.32924316 -76.46619141 125.78348633 -75.96582031 125.22119141 C-74.99552819 124.12872629 -74.02881045 123.03307471 -73.06591797 121.93408203 C-71.96515488 120.68219377 -70.8460502 119.44646448 -69.72265625 118.21484375 C-65.86469368 113.95446331 -62.6347782 109.47067978 -59.5234375 104.63671875 C-57.75 102.4375 -57.75 102.4375 -55.15234375 100.9375 C-52.24790922 99.12399941 -51.83091776 97.99451713 -50.9375 94.75 C-50.70417969 93.94175781 -50.47085938 93.13351563 -50.23046875 92.30078125 C-49.99263672 91.37845703 -49.99263672 91.37845703 -49.75 90.4375 C-50.430625 89.963125 -51.11125 89.48875 -51.8125 89 C-53.97802437 86.13591939 -54.00866859 85.65200803 -53.6875 82.25 C-53.18013328 78.98149021 -52.3007679 76.08433998 -51.125 73 C-48.46913249 65.57652643 -50.63751163 58.760793 -52.75 51.4375 C-53.1875 48.3125 -53.1875 48.3125 -52.75 45.4375 C-50.6875 42.9375 -50.6875 42.9375 -47.75 40.4375 C-47.18410156 39.92960937 -46.61820312 39.42171875 -46.03515625 38.8984375 C-42.7658372 35.99396587 -39.51345365 33.6752292 -35.75 31.4375 C-34.39748503 30.12362831 -33.06054623 28.79323748 -31.75 27.4375 C-29.3991992 26.2620996 -27.92972923 26.37112593 -25.3125 26.3125 C-18.04482799 25.68834767 -11.84117094 21.52867094 -6.75 16.4375 C-7.02034634 14.00032742 -7.02034634 14.00032742 -7.75 11.4375 C-8.08446556 10.10445023 -8.41800217 8.7711665 -8.75 7.4375 C-7.61820312 7.17195312 -6.48640625 6.90640625 -5.3203125 6.6328125 C-3.83845168 6.2764156 -2.3566857 5.91962424 -0.875 5.5625 C0.24455078 5.30146484 0.24455078 5.30146484 1.38671875 5.03515625 C5.73883671 4.04826121 5.73883671 4.04826121 9.25 1.4375 C-6.2654982 0.93947166 -20.71627601 1.3771267 -35.75 5.4375 Z " fill="#D2A114" transform="translate(131.75,-0.4375)"/>
<path d="M0 0 C-3.15394652 2.10263102 -5.82463704 3.01776618 -9.4375 4.125 C-10.57058594 4.47820313 -11.70367187 4.83140625 -12.87109375 5.1953125 C-16 6 -16 6 -20 6 C-19.505 6.928125 -19.01 7.85625 -18.5 8.8125 C-17 12 -17 12 -17 15 C-19.05691073 16.70699248 -21.01014431 18.13303997 -23.25 19.5625 C-23.880271 19.97016602 -24.51054199 20.37783203 -25.15991211 20.79785156 C-30.19011063 23.87568416 -34.62153919 24.94886438 -40.5 25.55078125 C-44.19087612 26.21398555 -45.79187285 28.07957376 -48 31 C-50.0767815 33.45437814 -51.19949094 34.07904358 -54.3125 35.3125 C-58.42133911 36.9997467 -61.51668296 39.27502444 -64 43 C-64.95837485 48.4307908 -63.16026845 53.17800331 -61.68359375 58.37109375 C-59.92787511 65.12308599 -61.4703452 69.45492704 -64.08984375 75.6328125 C-65.25107251 78.65300404 -65.6987311 80.81689165 -65 84 C-62.78508316 85.86250805 -62.78508316 85.86250805 -60 87 C-59.236875 87.391875 -58.47375 87.78375 -57.6875 88.1875 C-56.8521875 88.5896875 -56.8521875 88.5896875 -56 89 C-56 90.32 -56 91.64 -56 93 C-58.31 92.67 -60.62 92.34 -63 92 C-63.07992187 92.75023438 -63.15984375 93.50046875 -63.2421875 94.2734375 C-64.18161575 97.65344222 -65.37426847 98.5083354 -68.125 100.625 C-71.69070958 103.60763757 -74.03859479 106.3600124 -76.375 110.375 C-79.62123166 115.83835491 -83.61051299 119.56688173 -88.3984375 123.6953125 C-91.63547352 126.56295702 -94.29390417 129.63566464 -97 133 C-96.71125 133.721875 -96.4225 134.44375 -96.125 135.1875 C-95.75375 136.115625 -95.3825 137.04375 -95 138 C-94.4121875 139.2065625 -94.4121875 139.2065625 -93.8125 140.4375 C-92.79581024 143.64398308 -93.19208753 145.76835013 -94 149 C-94.33 149.33 -94.66 149.66 -95 150 C-95.23075082 151.34747084 -95.41153063 152.70377565 -95.5625 154.0625 C-95.7790625 156.0115625 -95.7790625 156.0115625 -96 158 C-95.28457031 157.9278125 -94.56914063 157.855625 -93.83203125 157.78125 C-73.72476793 155.90838718 -73.72476793 155.90838718 -68.50390625 158 C-65.4832215 159.20638892 -63.116869 159.23218742 -59.875 159.1875 C-58.84117188 159.18105469 -57.80734375 159.17460937 -56.7421875 159.16796875 C-53.90833023 159.11257378 -53.90833023 159.11257378 -51 158 C-47.54193698 157.53449152 -45.07624359 157.2495504 -42.12890625 159.3046875 C-40.94738736 160.36678405 -39.79382758 161.46112395 -38.67578125 162.58984375 C-36.79515612 164.17237446 -35.39735141 164.58738396 -33 165 C-33 164.34 -33 163.68 -33 163 C-32.01 163 -31.02 163 -30 163 C-29.67 164.98 -29.34 166.96 -29 169 C-28.01 168.67 -27.02 168.34 -26 168 C-25.67 167.34 -25.34 166.68 -25 166 C-24.01 166 -23.02 166 -22 166 C-21.79913557 169.71599191 -21.8480563 170.77208445 -24 174 C-24.16699232 177.12521833 -24.16699232 177.12521833 -24 180 C-20.78698932 179.69399898 -19.39202285 179.45099973 -17.234375 176.96875 C-16.74453125 176.1540625 -16.2546875 175.339375 -15.75 174.5 C-15.24984375 173.6853125 -14.7496875 172.870625 -14.234375 172.03125 C-13.82703125 171.3609375 -13.4196875 170.690625 -13 170 C-12.67 169.67 -12.34 169.34 -12 169 C-9.64305046 169.09031574 -7.28846418 169.24688128 -4.9375 169.4375 C-3.64714844 169.53933594 -2.35679687 169.64117187 -1.02734375 169.74609375 C-0.02832031 169.82988281 0.97070312 169.91367188 2 170 C2.33 169.01 2.66 168.02 3 167 C7.11694077 166.49793405 9.35249877 166.96479931 12.625 169.375 C13.20636719 169.83003906 13.78773438 170.28507813 14.38671875 170.75390625 C16.15286051 172.11806902 17.95921007 173.10205243 20 174 C15.35985983 173.56225093 13.23256837 173.23256837 10 170 C6.95788569 169.5832448 6.95788569 169.5832448 4 170 C3.34 170.66 2.68 171.32 2 172 C-0.23238618 171.8841823 -2.46182266 171.70813986 -4.6875 171.5 C-10.06268682 171.27849269 -10.06268682 171.27849269 -14.3046875 174.18359375 C-16.09530021 176.88957545 -16.09530021 176.88957545 -17.47265625 179.71484375 C-19 182 -19 182 -21.68359375 182.81640625 C-22.44800781 182.87699219 -23.21242188 182.93757812 -24 183 C-25.5625 181.5 -25.5625 181.5 -27 179 C-26.96823234 176.22562457 -26.50364148 173.74713533 -26 171 C-26.9590625 170.8453125 -26.9590625 170.8453125 -27.9375 170.6875 C-28.9584375 170.3471875 -28.9584375 170.3471875 -30 170 C-30.33 169.01 -30.66 168.02 -31 167 C-31.845625 167.12375 -32.69125 167.2475 -33.5625 167.375 C-37.35060873 166.96175177 -37.82930382 166.51378184 -40.4375 164 C-43.22259021 161.36963702 -43.76715429 161.02672 -47.8125 160.5625 C-50.88959705 160.81086709 -50.88959705 160.81086709 -53 162 C-55.16490195 162.09685088 -57.33293803 162.12979438 -59.5 162.125 C-60.6653125 162.12757813 -61.830625 162.13015625 -63.03125 162.1328125 C-66 162 -66 162 -68 161 C-70.24974161 160.84504237 -72.50371536 160.74989072 -74.7578125 160.68359375 C-75.42086395 160.66281265 -76.08391541 160.64203156 -76.76705933 160.62062073 C-78.88626694 160.55520769 -81.005599 160.49627895 -83.125 160.4375 C-84.56121081 160.39430691 -85.99740902 160.35069236 -87.43359375 160.30664062 C-90.95559594 160.19953501 -94.47773825 160.09824425 -98 160 C-98.1328125 153.375 -98.1328125 153.375 -96.9375 150 C-95.03557322 143.9138343 -97.17645376 139.40156672 -100 134 C-100 133.01 -100 132.02 -100 131 C-98.9790625 130.4121875 -98.9790625 130.4121875 -97.9375 129.8125 C-94.48002011 127.67916134 -92.4081762 125.18372195 -89.81640625 122.09375 C-88.15234652 120.17560803 -86.42038316 118.47668868 -84.5625 116.75 C-80.62395286 112.91766087 -77.87199391 108.42382417 -74.9921875 103.76953125 C-72.92211722 100.89172767 -70.91449437 99.00192318 -68 97 C-67.34 97 -66.68 97 -66 97 C-65.01 94.03 -64.02 91.06 -63 88 C-64.32 87.34 -65.64 86.68 -67 86 C-68.79298535 80.95722872 -67.69867544 77.68915545 -66 72.6875 C-63.06745083 63.87974026 -64.48269693 57.72665066 -67 49 C-67.4375 45.875 -67.4375 45.875 -67 43 C-65 40.5625 -65 40.5625 -62 38 C-61.0409375 37.12794922 -61.0409375 37.12794922 -60.0625 36.23828125 C-56.5338818 33.05049549 -53.11467399 30.40022649 -49 28 C-47.64748503 26.68612831 -46.31054623 25.35573748 -45 24 C-42.6491992 22.8245996 -41.17972923 22.93362593 -38.5625 22.875 C-32.0803777 22.29860137 -26.85450754 19.25540316 -22 15 C-20.38972814 11.23544551 -21.5616459 8.72279885 -23 5 C-18.55719258 3.45735854 -14.13606591 1.98272606 -9.5625 0.875 C-2.70096463 -0.81028939 -2.70096463 -0.81028939 0 0 Z " fill="#D4A729" transform="translate(145,2)"/>
<path d="M0 0 C2.1445963 1.4342625 4.08051749 2.88973299 5.96484375 4.6484375 C3.31446075 8.99506562 0.368951 12.36636497 -3.28515625 15.90234375 C-5.73006439 18.34179451 -7.87066296 20.95921856 -10.03515625 23.6484375 C-14.90774288 22.46720438 -17.18755647 19.51717921 -20.25 15.80859375 C-21.40904548 14.40607263 -22.60849022 13.03564829 -23.8515625 11.70703125 C-24.40714844 11.11019531 -24.96273437 10.51335937 -25.53515625 9.8984375 C-26.04046875 9.36734375 -26.54578125 8.83625 -27.06640625 8.2890625 C-28.03515625 6.6484375 -28.03515625 6.6484375 -27.8828125 4.5859375 C-26.63448387 1.73261491 -24.57000767 0.66800041 -21.80859375 -0.578125 C-14.92721179 -2.49715828 -6.60055533 -2.93924343 0 0 Z " fill="#E9D290" transform="translate(120.03515625,110.3515625)"/>
<path d="M0 0 C2 2 2 2 2.125 5.1875 C3.09883485 9.43063757 3.53716405 9.71737603 6.8125 12.1875 C11.3411956 15.80244109 12.33448993 19.17216782 13.89453125 24.62890625 C15.82079921 30.50300254 18.80663295 35.77612582 21.90576172 41.10546875 C22.63737153 42.37215597 23.35256171 43.64846465 24.05126953 44.93359375 C26.29945645 49.03761019 28.56147891 52.76120462 32 56 C35.2547055 56.65352079 37.83776655 56.46329848 41.125 56.0859375 C45.31755558 55.96061655 47.36384363 57.51802765 50.4453125 60.203125 C52.82206974 62.95013086 53.85448676 65.56346028 55 69 C55.33 69.33 55.66 69.66 56 70 C56.05334977 71.52046833 56.09248887 73.04144341 56.125 74.5625 C56.57204522 80.06821478 58.69393595 82.29591463 62.46484375 86.11328125 C64 88 64 88 64.625 91.875 C64.41875 92.90625 64.2125 93.9375 64 95 C63.01 95.66 62.02 96.32 61 97 C61 97.66 61 98.32 61 99 C61.721875 98.9175 62.44375 98.835 63.1875 98.75 C67.08396638 99.09635257 68.4600728 100.02465671 71 103 C71.98014118 108.27075922 71.02085223 113.07417269 69 118 C68.030625 117.855625 67.06125 117.71125 66.0625 117.5625 C61.34173581 117.58180783 58.34016653 119.93473232 54.80078125 122.85546875 C52.264204 125.87625164 52.34125009 128.21840409 52.26953125 132.0390625 C52 134 52 134 49.5 136.125 C45.67842025 137.08039494 43.09116451 136.86595898 39.2578125 136.26171875 C35.99830956 135.88388709 33.20993337 136.38533191 30 137 C29.22868094 140.31184707 29.22868094 140.31184707 29 144 C29.96113866 145.36161311 30.95884159 146.69855198 32 148 C31.91015625 150.37890625 31.91015625 150.37890625 31 153 C28.71484375 155.01953125 28.71484375 155.01953125 25.9375 156.8125 C25.01839844 157.41707031 24.09929687 158.02164063 23.15234375 158.64453125 C22.44207031 159.09183594 21.73179687 159.53914062 21 160 C20.34 159.67 19.68 159.34 19 159 C22.3 156.69 25.6 154.38 29 152 C28.50847518 147.13867505 28.50847518 147.13867505 26 145 C25.98828125 143.125 25.98828125 143.125 26.3125 141 C26.41175781 140.29875 26.51101562 139.5975 26.61328125 138.875 C27 137 27 137 28 135 C30.00022691 134.70488455 32.0032902 134.41889457 34.015625 134.22265625 C36.03844421 134.05646473 36.03844421 134.05646473 38.0625 133.375 C41.11894355 132.78343028 43.95423631 133.5016023 47 134 C47.99 134 48.98 134 50 134 C49.89558594 133.443125 49.79117188 132.88625 49.68359375 132.3125 C49.39888576 129.63714874 49.3896066 127.63283022 50 125 C53.38851087 120.87940345 57.5877015 117.94153234 62 115 C65.1875 114.875 65.1875 114.875 68 115 C68 111.37 68 107.74 68 104 C64.7 102.35 61.4 100.7 58 99 C59 95 59 95 61 93 C60.72870856 88.80541693 59.20053837 86.74079695 56.4375 83.6875 C52.70316139 79.14860876 52.49659696 76.73879464 53 71 C52.01 70.01 52.01 70.01 51 69 C50.9175 68.05125 50.835 67.1025 50.75 66.125 C49.94351823 62.7646593 49.07237394 61.43876858 46.125 59.625 C43.20254839 58.76545541 40.7662641 59.28353614 37.75 59.625 C34.31640625 59.73828125 34.31640625 59.73828125 31 59 C27.23875369 55.42866234 24.73102328 51.44332262 22.15087891 46.97216797 C21.02553983 45.04376554 19.83438082 43.18014724 18.60546875 41.31640625 C13 32.6965742 13 32.6965742 13 28 C12.34 28 11.68 28 11 28 C10.86464844 27.27554688 10.72929687 26.55109375 10.58984375 25.8046875 C9.16794595 19.41891891 7.86782086 16.35527428 2.58984375 12.5390625 C-0.29573305 9.74565401 -0.81260929 5.90397318 -1 2 C-0.67 1.34 -0.34 0.68 0 0 Z " fill="#D4A628" transform="translate(146,15)"/>
<path d="M0 0 C0.33 0 0.66 0 1 0 C1 1.98 1 3.96 1 6 C7.435 5.505 7.435 5.505 14 5 C14 4.67 14 4.34 14 4 C16.0622048 3.945652 18.12482816 3.90705039 20.1875 3.875 C21.33605469 3.85179687 22.48460938 3.82859375 23.66796875 3.8046875 C26.9771934 3.99866315 28.97416924 4.76369077 32 6 C35.02315075 6.27709419 35.02315075 6.27709419 38.125 6.1875 C39.15882812 6.18105469 40.19265625 6.17460937 41.2578125 6.16796875 C44.09166977 6.11257378 44.09166977 6.11257378 47 5 C50.45806302 4.53449152 52.92375641 4.2495504 55.87109375 6.3046875 C57.05261264 7.36678405 58.20617242 8.46112395 59.32421875 9.58984375 C61.20484388 11.17237446 62.60264859 11.58738396 65 12 C65 11.34 65 10.68 65 10 C65.99 10 66.98 10 68 10 C68.495 12.97 68.495 12.97 69 16 C69.99 15.67 70.98 15.34 72 15 C72.33 14.34 72.66 13.68 73 13 C73.99 13 74.98 13 76 13 C76.20086443 16.71599191 76.1519437 17.77208445 74 21 C73.83300768 24.12521833 73.83300768 24.12521833 74 27 C77.21301068 26.69399898 78.60797715 26.45099973 80.765625 23.96875 C81.25546875 23.1540625 81.7453125 22.339375 82.25 21.5 C83.00023437 20.27796875 83.00023437 20.27796875 83.765625 19.03125 C84.17296875 18.3609375 84.5803125 17.690625 85 17 C85.495 16.505 85.495 16.505 86 16 C88.35694954 16.09031574 90.71153582 16.24688128 93.0625 16.4375 C94.35285156 16.53933594 95.64320313 16.64117187 96.97265625 16.74609375 C98.47119141 16.87177734 98.47119141 16.87177734 100 17 C100.495 15.515 100.495 15.515 101 14 C105.11694077 13.49793405 107.35249877 13.96479931 110.625 16.375 C111.20636719 16.83003906 111.78773438 17.28507812 112.38671875 17.75390625 C114.15286051 19.11806902 115.95921007 20.10205243 118 21 C113.35985983 20.56225093 111.23256837 20.23256837 108 17 C104.95788569 16.5832448 104.95788569 16.5832448 102 17 C101.34 17.66 100.68 18.32 100 19 C97.76761382 18.8841823 95.53817734 18.70813986 93.3125 18.5 C87.93731318 18.27849269 87.93731318 18.27849269 83.6953125 21.18359375 C81.90469979 23.88957545 81.90469979 23.88957545 80.52734375 26.71484375 C79 29 79 29 76.31640625 29.81640625 C75.55199219 29.87699219 74.78757812 29.93757813 74 30 C72.4375 28.5 72.4375 28.5 71 26 C71.03176766 23.22562457 71.49635852 20.74713533 72 18 C71.360625 17.896875 70.72125 17.79375 70.0625 17.6875 C69.381875 17.460625 68.70125 17.23375 68 17 C67.505 15.515 67.505 15.515 67 14 C65.7315625 14.185625 65.7315625 14.185625 64.4375 14.375 C60.64939127 13.96175177 60.17069618 13.51378184 57.5625 11 C54.77740979 8.36963702 54.23284571 8.02672 50.1875 7.5625 C47.11040295 7.81086709 47.11040295 7.81086709 45 9 C42.83509805 9.09685088 40.66706197 9.12979438 38.5 9.125 C37.3346875 9.12757813 36.169375 9.13015625 34.96875 9.1328125 C32 9 32 9 30 8 C27.75025839 7.84504237 25.49628464 7.74989072 23.2421875 7.68359375 C22.57913605 7.66281265 21.91608459 7.64203156 21.23294067 7.62062073 C19.11373306 7.55520769 16.994401 7.49627895 14.875 7.4375 C13.43878919 7.39430691 12.00259098 7.35069236 10.56640625 7.30664062 C7.04440406 7.19953501 3.52226175 7.09824425 0 7 C0 4.69 0 2.38 0 0 Z " fill="#D8AE37" transform="translate(47,155)"/>
<path d="M0 0 C14.06596021 -0.56347318 14.06596021 -0.56347318 19 3 C20.58939347 6.17878694 20.41576711 8.4956772 20 12 C17.14515711 15.12040967 15.38886162 16.84903678 11.125 17.3125 C10.42375 17.209375 9.7225 17.10625 9 17 C10 14 10 14 12.0625 12.8125 C13.0215625 12.4103125 13.0215625 12.4103125 14 12 C14 9.69 14 7.38 14 5 C12.02 4.34 10.04 3.68 8 3 C8 10.59 8 18.18 8 26 C9.32 26.33 10.64 26.66 12 27 C12 27.66 12 28.32 12 29 C8.04 29 4.08 29 0 29 C0 28.01 0 27.02 0 26 C0.99 26 1.98 26 3 26 C2.67 18.41 2.34 10.82 2 3 C1.34 2.67 0.68 2.34 0 2 C0 1.34 0 0.68 0 0 Z " fill="#D7AB33" transform="translate(103,66)"/>
<path d="M0 0 C0 1.98 0 3.96 0 6 C-0.99 6.33 -1.98 6.66 -3 7 C-2.01 7 -1.02 7 0 7 C0 12.28 0 17.56 0 23 C-2 23 -2 23 -3.515625 21.49609375 C-4.71355323 20.07422849 -5.91146912 18.65235283 -7.109375 17.23046875 C-8.3151865 15.80791014 -9.55240744 14.41100147 -10.828125 13.05078125 C-11.37984375 12.45652344 -11.9315625 11.86226562 -12.5 11.25 C-13.0053125 10.71890625 -13.510625 10.1878125 -14.03125 9.640625 C-15 8 -15 8 -14.88671875 5.9375 C-13.46051606 2.82121572 -11.14641312 2.13465182 -8.14453125 0.75 C-5.35270865 -0.22637512 -2.92757839 -0.29275784 0 0 Z " fill="#DEBA54" transform="translate(107,109)"/>
<path d="M0 0 C6.27 0 12.54 0 19 0 C15.625 10.125 15.625 10.125 14 14 C13.01 14 12.02 14 11 14 C11 12.68 11 11.36 11 10 C10.34 10 9.68 10 9 10 C8.67 11.32 8.34 12.64 8 14 C7.34 14 6.68 14 6 14 C5.3291288 12.3767313 4.66342971 10.75132422 4 9.125 C3.62875 8.22007812 3.2575 7.31515625 2.875 6.3828125 C2 4 2 4 2 2 C1.34 2 0.68 2 0 2 C0 1.34 0 0.68 0 0 Z " fill="#E4C776" transform="translate(141,196)"/>
<path d="M0 0 C3.96 0 7.92 0 12 0 C12 0.66 12 1.32 12 2 C11.01 2.33 10.02 2.66 9 3 C8.99383667 4.14214966 8.99383667 4.14214966 8.98754883 5.30737305 C8.9545886 8.76819666 8.88393946 12.22726571 8.8125 15.6875 C8.80669922 16.88568359 8.80089844 18.08386719 8.79492188 19.31835938 C8.54626346 29.2370673 8.54626346 29.2370673 5.59375 32.28125 C3.28280239 33.81260082 1.73626374 34.6959707 -1 35 C0.15173355 32.53199953 1.04783565 30.95216435 3 29 C3.27844932 26.28065665 3.27844932 26.28065665 3.1953125 23.1171875 C3.18886719 21.95058594 3.18242187 20.78398438 3.17578125 19.58203125 C3.15902344 18.35871094 3.14226562 17.13539062 3.125 15.875 C3.11597656 14.64394531 3.10695312 13.41289063 3.09765625 12.14453125 C3.07402548 9.09616185 3.04108054 6.04817618 3 3 C2.01 2.67 1.02 2.34 0 2 C0 1.34 0 0.68 0 0 Z " fill="#CF9C10" transform="translate(146,100)"/>
<path d="M0 0 C1.640625 1.09375 1.640625 1.09375 3.890625 3.09375 C3.24755444 8.19812253 1.72894427 12.64136114 -0.109375 17.40625 C-0.51929688 18.49776367 -0.51929688 18.49776367 -0.9375 19.61132812 C-2.96863252 24.95300752 -2.96863252 24.95300752 -4.109375 26.09375 C-3.449375 26.42375 -2.789375 26.75375 -2.109375 27.09375 C-2.109375 27.75375 -2.109375 28.41375 -2.109375 29.09375 C-6.069375 29.09375 -10.029375 29.09375 -14.109375 29.09375 C-14.109375 28.10375 -14.109375 27.11375 -14.109375 26.09375 C-14.81508922 20.33447301 -16.8566156 15.45031534 -19.05078125 10.1171875 C-20.109375 7.09375 -20.109375 7.09375 -20.109375 3.09375 C-14.93521645 -2.08040855 -6.71242337 -2.88385597 0 0 Z M-18.109375 4.09375 C-19.37316909 9.00850479 -16.17800184 13.74147776 -14.109375 18.09375 C-13.51902987 19.44487463 -12.93487324 20.79873502 -12.359375 22.15625 C-11.740625 23.6103125 -11.740625 23.6103125 -11.109375 25.09375 C-10.449375 25.09375 -9.789375 25.09375 -9.109375 25.09375 C-9.109375 26.08375 -9.109375 27.07375 -9.109375 28.09375 C-8.449375 28.09375 -7.789375 28.09375 -7.109375 28.09375 C-7.109375 27.10375 -7.109375 26.11375 -7.109375 25.09375 C-6.449375 25.09375 -5.789375 25.09375 -5.109375 25.09375 C-3.90365557 22.18428687 -2.72309275 19.26525084 -1.546875 16.34375 C-1.03350586 15.10625 -1.03350586 15.10625 -0.50976562 13.84375 C-0.03120117 12.64492187 -0.03120117 12.64492187 0.45703125 11.421875 C0.75552979 10.6887207 1.05402832 9.95556641 1.36157227 9.20019531 C1.97837882 6.74435456 1.78531919 5.44450899 0.890625 3.09375 C-1.95967252 0.29423729 -4.09771689 -0.33766501 -8.046875 -0.34375 C-12.55498722 -0.197253 -15.15476522 0.44973128 -18.109375 4.09375 Z " fill="#E8CF88" transform="translate(159.109375,63.90625)"/>
<path d="M0 0 C1.98 0 3.96 0 6 0 C6 0.99 6 1.98 6 3 C6.66 3 7.32 3 8 3 C8 2.01 8 1.02 8 0 C10.31 0 12.62 0 15 0 C14.44054438 3.78904032 12.8617206 5.46111174 10.125 8.0625 C9.42632812 8.73410156 8.72765625 9.40570313 8.0078125 10.09765625 C7.34523438 10.72542969 6.68265625 11.35320312 6 12 C4.99666113 12.99664994 3.9952942 13.99531624 3 15 C0.73045369 11.59568053 0.63450051 9.83475798 0.375 5.8125 C0.30023438 4.72582031 0.22546875 3.63914062 0.1484375 2.51953125 C0.09945312 1.68808594 0.05046875 0.85664062 0 0 Z " fill="#F2E5BF" transform="translate(109,116)"/>
<path d="M0 0 C1.32 0 2.64 0 4 0 C4 0.66 4 1.32 4 2 C4.66 2 5.32 2 6 2 C6 1.34 6 0.68 6 0 C7.65 0.33 9.3 0.66 11 1 C11.75 3.25 11.75 3.25 12 6 C10.1875 8.3125 10.1875 8.3125 8 10 C7.34 10 6.68 10 6 10 C6 9.34 6 8.68 6 8 C5.34 8 4.68 8 4 8 C4 8.66 4 9.32 4 10 C1.5625 9.625 1.5625 9.625 -1 9 C-1.33 8.34 -1.66 7.68 -2 7 C-5.02934491 6.34227572 -5.02934491 6.34227572 -8 6 C-8 5.34 -8 4.68 -8 4 C-7.05125 3.896875 -6.1025 3.79375 -5.125 3.6875 C-1.70892499 3.31460705 -1.70892499 3.31460705 0 0 Z " fill="#D1A115" transform="translate(179,223)"/>
<path d="M0 0 C7 0 7 0 10 2 C10.3984375 4.3125 10.3984375 4.3125 10.375 7 C10.38273437 7.886875 10.39046875 8.77375 10.3984375 9.6875 C10.26695313 10.450625 10.13546875 11.21375 10 12 C7 14 7 14 0 14 C0 9.38 0 4.76 0 0 Z " fill="#D4A62A" transform="translate(103,196)"/>
<path d="M0 0 C10 0 10 0 12.625 1.5625 C14.58573474 5.03834795 14.68900545 7.07266893 14 11 C11.14515711 14.12040967 9.38886162 15.84903678 5.125 16.3125 C4.42375 16.209375 3.7225 16.10625 3 16 C4 13 4 13 6.0625 11.8125 C7.0215625 11.4103125 7.0215625 11.4103125 8 11 C8.16677282 7.58343976 8.16677282 7.58343976 8 4 C5.86132495 1.49152482 5.86132495 1.49152482 1 1 C1 8.92 1 16.84 1 25 C0.67 25 0.34 25 0 25 C0 16.75 0 8.5 0 0 Z " fill="#D09F19" transform="translate(109,67)"/>
<path d="M0 0 C7 0 7 0 10 2 C9.814375 3.093125 9.62875 4.18625 9.4375 5.3125 C8.7421932 8.93624133 8.7421932 8.93624133 10 12 C10.99 12.33 11.98 12.66 13 13 C11.68 13.33 10.36 13.66 9 14 C7.68 12.35 6.36 10.7 5 9 C5 10.65 5 12.3 5 14 C3.35 14 1.7 14 0 14 C0 9.38 0 4.76 0 0 Z " fill="#D2A11C" transform="translate(212,196)"/>
<path d="M0 0 C0 0.66 0 1.32 0 2 C0.66 2 1.32 2 2 2 C2 1.34 2 0.68 2 0 C4.375 0.3125 4.375 0.3125 7 1 C7.66 1.99 8.32 2.98 9 4 C11.05003955 5.19232613 11.05003955 5.19232613 13 6 C11.824375 6.1546875 11.824375 6.1546875 10.625 6.3125 C7.66954819 6.77595022 7.66954819 6.77595022 6 10 C4.68 10 3.36 10 2 10 C2 9.34 2 8.68 2 8 C1.34 8 0.68 8 0 8 C-0.33 8.66 -0.66 9.32 -1 10 C-1 9.34 -1 8.68 -1 8 C-3.475 7.01 -3.475 7.01 -6 6 C-3.84615385 0 -3.84615385 0 0 0 Z " fill="#DBB444" transform="translate(85,223)"/>
<path d="M0 0 C2.97 0 5.94 0 9 0 C8.67 2.97 8.34 5.94 8 9 C6.35 8.67 4.7 8.34 3 8 C3 9.32 3 10.64 3 12 C4.65 12 6.3 12 8 12 C8 11.34 8 10.68 8 10 C8.66 10 9.32 10 10 10 C9.67 11.32 9.34 12.64 9 14 C5.7 14 2.4 14 -1 14 C-0.67 9.38 -0.34 4.76 0 0 Z " fill="#D09D17" transform="translate(200,196)"/>
<path d="M0 0 C0.33 0 0.66 0 1 0 C1 1.98 1 3.96 1 6 C7.435 5.505 7.435 5.505 14 5 C14 4.67 14 4.34 14 4 C16.0622048 3.945652 18.12482816 3.90705039 20.1875 3.875 C21.33605469 3.85179687 22.48460938 3.82859375 23.66796875 3.8046875 C26.97601305 3.99859397 28.97645799 4.76068533 32 6 C34.95536349 6.27728557 34.95536349 6.27728557 38 6.1875 C39.5159375 6.17783203 39.5159375 6.17783203 41.0625 6.16796875 C43.98411681 6.07372255 43.98411681 6.07372255 46.73046875 5.4296875 C49.51665738 4.90218191 50.64554772 5.51756709 53 7 C46.32946213 9.09271776 36.5000155 11.25000775 30 8 C27.75025839 7.84504237 25.49628464 7.74989072 23.2421875 7.68359375 C22.57913605 7.66281265 21.91608459 7.64203156 21.23294067 7.62062073 C19.11373306 7.55520769 16.994401 7.49627895 14.875 7.4375 C13.43878919 7.39430691 12.00259098 7.35069236 10.56640625 7.30664062 C7.04440406 7.19953501 3.52226175 7.09824425 0 7 C0 4.69 0 2.38 0 0 Z " fill="#E4C774" transform="translate(47,155)"/>
<path d="M0 0 C0.33 0 0.66 0 1 0 C1.495 4.455 1.495 4.455 2 9 C-2.68104707 12.0006712 -5.49290294 12.08914835 -10.7421875 11.26171875 C-14.00169044 10.88388709 -16.79006663 11.38533191 -20 12 C-20.77131906 15.31184707 -20.77131906 15.31184707 -21 19 C-20.03886134 20.36161311 -19.04115841 21.69855198 -18 23 C-18.08984375 25.37890625 -18.08984375 25.37890625 -19 28 C-21.28515625 30.01953125 -21.28515625 30.01953125 -24.0625 31.8125 C-24.98160156 32.41707031 -25.90070313 33.02164063 -26.84765625 33.64453125 C-27.55792969 34.09183594 -28.26820313 34.53914063 -29 35 C-29.66 34.67 -30.32 34.34 -31 34 C-27.7 31.69 -24.4 29.38 -21 27 C-21.49152482 22.13867505 -21.49152482 22.13867505 -24 20 C-24.01171875 18.125 -24.01171875 18.125 -23.6875 16 C-23.53861328 14.948125 -23.53861328 14.948125 -23.38671875 13.875 C-23 12 -23 12 -22 10 C-19.99977309 9.70488455 -17.9967098 9.41889457 -15.984375 9.22265625 C-13.96155579 9.05646473 -13.96155579 9.05646473 -11.9375 8.375 C-8.88105645 7.78343028 -6.04576369 8.5016023 -3 9 C-2.01 9 -1.02 9 0 9 C0 6.03 0 3.06 0 0 Z " fill="#D9B13E" transform="translate(196,140)"/>
<path d="M0 0 C2.70931419 0.15481795 4.46584039 0.48172081 6.4453125 2.40234375 C7.67679642 3.89771708 8.8429837 5.4462924 10 7 C10 4.69 10 2.38 10 0 C11.32 0 12.64 0 14 0 C13.67 4.62 13.34 9.24 13 14 C12.34 14 11.68 14 11 14 C9.4921875 12.25 9.4921875 12.25 7.875 10 C7.33617188 9.2575 6.79734375 8.515 6.2421875 7.75 C5.83226563 7.1725 5.42234375 6.595 5 6 C5 8.64 5 11.28 5 14 C3.68 14 2.36 14 1 14 C1.33 10.04 1.66 6.08 2 2 C1.34 2 0.68 2 0 2 C0 1.34 0 0.68 0 0 Z " fill="#D6AA30" transform="translate(64,196)"/>
<path d="M0 0 C0.99 0 1.98 0 3 0 C4.32 2.31 5.64 4.62 7 7 C6.34414811 3.39007621 6.34414811 3.39007621 5 0 C5.99 0 6.98 0 8 0 C8 0.99 8 1.98 8 3 C8.99 2.67 9.98 2.34 11 2 C11 3.98 11 5.96 11 8 C11.66 8 12.32 8 13 8 C13.33 7.34 13.66 6.68 14 6 C13.67 8.31 13.34 10.62 13 13 C12.01 13 11.02 13 10 13 C10 11.68 10 10.36 10 9 C9.34 9 8.68 9 8 9 C7.67 10.32 7.34 11.64 7 13 C6.34 13 5.68 13 5 13 C3.35 8.71 1.7 4.42 0 0 Z " fill="#D3A527" transform="translate(142,197)"/>
<path d="M0 0 C2.97 0 5.94 0 9 0 C8.67 0.99 8.34 1.98 8 3 C6.68 2.67 5.36 2.34 4 2 C4 3.32 4 4.64 4 6 C5.32 5.67 6.64 5.34 8 5 C7.67 6.32 7.34 7.64 7 9 C6.01 8.67 5.02 8.34 4 8 C4 9.32 4 10.64 4 12 C5.98 11.67 7.96 11.34 10 11 C10 11.99 10 12.98 10 14 C6.7 14 3.4 14 0 14 C0 9.38 0 4.76 0 0 Z " fill="#D6AA30" transform="translate(162,196)"/>
<path d="M0 0 C1.98 0 3.96 0 6 0 C6 5.28 6 10.56 6 16 C4 16 4 16 1.8125 13.875 C0 11 0 11 0.25 7.6875 C0.4975 6.800625 0.745 5.91375 1 5 C0.01 5.495 0.01 5.495 -1 6 C-0.67 4.02 -0.34 2.04 0 0 Z " fill="#D6AA2E" transform="translate(101,116)"/>
<path d="M0 0 C0.99 0 1.98 0 3 0 C3 0.66 3 1.32 3 2 C1.68 2.33 0.36 2.66 -1 3 C-1 5.31 -1 7.62 -1 10 C-0.34 10 0.32 10 1 10 C0.67 8.35 0.34 6.7 0 5 C0.99 5.33 1.98 5.66 3 6 C2.67 7.65 2.34 9.3 2 11 C-2.75 10.25 -2.75 10.25 -5 8 C-5.99 8.495 -5.99 8.495 -7 9 C-7 7.02 -7 5.04 -7 3 C-7.66 3 -8.32 3 -9 3 C-8.67 4.32 -8.34 5.64 -8 7 C-8.99 7 -9.98 7 -11 7 C-11 5.35 -11 3.7 -11 2 C-9.35 1.67 -7.7 1.34 -6 1 C-5.67 1.66 -5.34 2.32 -5 3 C-2.3094472 1.77992056 -2.3094472 1.77992056 0 0 Z " fill="#E4C774" transform="translate(165,222)"/>
<path d="M0 0 C1.98 0 3.96 0 6 0 C6 0.66 6 1.32 6 2 C5.34 2 4.68 2 4 2 C4.33 4.64 4.66 7.28 5 10 C6.65 10.33 8.3 10.66 10 11 C10 7.37 10 3.74 10 0 C11.32 0 12.64 0 14 0 C13.91231752 1.5843317 13.80412671 3.16753567 13.6875 4.75 C13.62949219 5.63171875 13.57148437 6.5134375 13.51171875 7.421875 C12.92469461 10.37940118 12.09385923 11.84659975 10 14 C6.9375 14.375 6.9375 14.375 4 14 C2 12 2 12 1.8046875 9.6171875 C1.82789063 8.71226562 1.85109375 7.80734375 1.875 6.875 C1.89304688 5.96492187 1.91109375 5.05484375 1.9296875 4.1171875 C1.95289063 3.41851562 1.97609375 2.71984375 2 2 C1.34 2 0.68 2 0 2 C0 1.34 0 0.68 0 0 Z " fill="#D6AB2F" transform="translate(48,196)"/>
<path d="M0 0 C0.66 0 1.32 0 2 0 C2.50336767 1.62395997 3.00258976 3.24920541 3.5 4.875 C3.7784375 5.77992188 4.056875 6.68484375 4.34375 7.6171875 C5 10 5 10 5 12 C5.66 12 6.32 12 7 12 C7 12.66 7 13.32 7 14 C5.35 14 3.7 14 2 14 C2 12.35 2 10.7 2 9 C0.68 9 -0.64 9 -2 9 C-1.67 10.65 -1.34 12.3 -1 14 C-2.65 14 -4.3 14 -6 14 C-6 13.34 -6 12.68 -6 12 C-5.34 12 -4.68 12 -4 12 C-3.79503906 11.21753906 -3.59007813 10.43507812 -3.37890625 9.62890625 C-3.10949219 8.61699219 -2.84007813 7.60507813 -2.5625 6.5625 C-2.29566406 5.55316406 -2.02882813 4.54382813 -1.75390625 3.50390625 C-1 1 -1 1 0 0 Z " fill="#DAB23F" transform="translate(94,196)"/>
<path d="M0 0 C2.475 0.99 2.475 0.99 5 2 C3.02 2.99 3.02 2.99 1 4 C1.33 4.66 1.66 5.32 2 6 C2.25861731 8.5057144 2.46536319 10.98806777 2.625 13.5 C2.6765625 14.18964844 2.728125 14.87929687 2.78125 15.58984375 C3.12345364 20.75309273 3.12345364 20.75309273 2 23 C0.68 22.34 -0.64 21.68 -2 21 C-1.67 15.72 -1.34 10.44 -1 5 C-1.99 5 -2.98 5 -4 5 C-3.67 4.34 -3.34 3.68 -3 3 C-2.01 3.33 -1.02 3.66 0 4 C0 2.68 0 1.36 0 0 Z " fill="#EDD9A1" transform="translate(108,111)"/>
<path d="M0 0 C3.3 0 6.6 0 10 0 C10 0.99 10 1.98 10 3 C7.03 2.505 7.03 2.505 4 2 C4 3.32 4 4.64 4 6 C5.32 5.67 6.64 5.34 8 5 C7.67 6.32 7.34 7.64 7 9 C7 8.34 7 7.68 7 7 C6.01 7 5.02 7 4 7 C4 8.65 4 10.3 4 12 C5.65 12 7.3 12 9 12 C9 11.34 9 10.68 9 10 C9.66 10 10.32 10 11 10 C10.67 11.32 10.34 12.64 10 14 C6.7 14 3.4 14 0 14 C0 13.34 0 12.68 0 12 C0.66 12 1.32 12 2 12 C2 8.7 2 5.4 2 2 C1.34 2 0.68 2 0 2 C0 1.34 0 0.68 0 0 Z " fill="#D3A422" transform="translate(129,196)"/>
<path d="M0 0 C6.625 -0.25 6.625 -0.25 10 2 C9.67 3.65 9.34 5.3 9 7 C7.68 7.33 6.36 7.66 5 8 C5.66 6.02 6.32 4.04 7 2 C6.01 2 5.02 2 4 2 C4 5.3 4 8.6 4 12 C4.66 12 5.32 12 6 12 C6 12.66 6 13.32 6 14 C4.35 14 2.7 14 1 14 C1.33 10.04 1.66 6.08 2 2 C1.34 2 0.68 2 0 2 C0 1.34 0 0.68 0 0 Z " fill="#D19F17" transform="translate(36,196)"/>
<path d="M0 0 C1.65 0 3.3 0 5 0 C4.67 3.96 4.34 7.92 4 12 C5.32 12 6.64 12 8 12 C8 11.34 8 10.68 8 10 C8.66 10 9.32 10 10 10 C9.67 11.32 9.34 12.64 9 14 C6.03 14 3.06 14 0 14 C0 9.38 0 4.76 0 0 Z " fill="#D6AA30" transform="translate(175,196)"/>
<path d="M0 0 C1.65 0 3.3 0 5 0 C4.67 3.96 4.34 7.92 4 12 C5.98 11.34 7.96 10.68 10 10 C9.67 11.32 9.34 12.64 9 14 C6.03 14 3.06 14 0 14 C0 9.38 0 4.76 0 0 Z " fill="#D6A932" transform="translate(187,196)"/>
<path d="M0 0 C1.2065625 0.0309375 1.2065625 0.0309375 2.4375 0.0625 C2.7675 1.0525 3.0975 2.0425 3.4375 3.0625 C1.7875 2.7325 0.1375 2.4025 -1.5625 2.0625 C-1.5625 3.0525 -1.5625 4.0425 -1.5625 5.0625 C-0.923125 5.289375 -0.28375 5.51625 0.375 5.75 C2.4375 7.0625 2.4375 7.0625 3.3125 9.5625 C3.35375 10.3875 3.395 11.2125 3.4375 12.0625 C1.4375 14.0625 1.4375 14.0625 -1.1875 14.1875 C-1.97125 14.14625 -2.755 14.105 -3.5625 14.0625 C-3.8925 12.7425 -4.2225 11.4225 -4.5625 10.0625 C-2.0875 11.0525 -2.0875 11.0525 0.4375 12.0625 C-1.31704385 8.88015895 -1.31704385 8.88015895 -3.5625 6.0625 C-3.6875 3.5625 -3.6875 3.5625 -3.5625 1.0625 C-2.5625 0.0625 -2.5625 0.0625 0 0 Z " fill="#D4A525" transform="translate(230.5625,195.9375)"/>
<path d="M0 0 C3.3 0 6.6 0 10 0 C10 2.31 10 4.62 10 7 C9.34 7 8.68 7 8 7 C7.67 5.68 7.34 4.36 7 3 C6.34 4.32 5.68 5.64 5 7 C3.02 7 1.04 7 -1 7 C-0.67 4.69 -0.34 2.38 0 0 Z " fill="#D9B03F" transform="translate(110,226)"/>
<path d="M0 0 C4.11694077 -0.50206595 6.35249877 -0.03520069 9.625 2.375 C10.49705078 3.05755859 10.49705078 3.05755859 11.38671875 3.75390625 C13.15286051 5.11806902 14.95921007 6.10205243 17 7 C12.35985983 6.56225093 10.23256837 6.23256837 7 3 C3.95788569 2.5832448 3.95788569 2.5832448 1 3 C0.34 3.66 -0.32 4.32 -1 5 C-3.8203125 4.9765625 -3.8203125 4.9765625 -7.125 4.625 C-8.22070312 4.51414063 -9.31640625 4.40328125 -10.4453125 4.2890625 C-11.70988281 4.14597656 -11.70988281 4.14597656 -13 4 C-9.64672361 1.76448241 -9.09256343 1.82716472 -5.3125 2.375 C-4.50425781 2.48585937 -3.69601563 2.59671875 -2.86328125 2.7109375 C-2.24839844 2.80632812 -1.63351563 2.90171875 -1 3 C-0.67 2.01 -0.34 1.02 0 0 Z " fill="#DDB84E" transform="translate(148,169)"/>
<path d="M0 0 C0.33 0.66 0.66 1.32 1 2 C0.40832031 2.01417969 -0.18335937 2.02835938 -0.79296875 2.04296875 C-5.1797598 2.30775059 -7.39494321 2.50017048 -10.875 5.375 C-11.57625 6.24125 -12.2775 7.1075 -13 8 C-15.47663017 10.88940186 -17.21774458 11.4888844 -21 12 C-21 11.01 -21 10.02 -21 9 C-20.113125 8.608125 -19.22625 8.21625 -18.3125 7.8125 C-14.87003868 5.92888909 -12.68225636 3.8312706 -10 1 C-6.78548731 -0.60725635 -3.56387464 -0.05748185 0 0 Z " fill="#D7AC34" transform="translate(110,25)"/>
<path d="M0 0 C0 1.98 0 3.96 0 6 C-0.99 5.67 -1.98 5.34 -3 5 C-3 4.34 -3 3.68 -3 3 C-3.66 3 -4.32 3 -5 3 C-5 3.66 -5 4.32 -5 5 C-7.64 5.33 -10.28 5.66 -13 6 C-12 3 -12 3 -9.3125 1.3125 C-5.91018714 -0.03558623 -3.61672729 -0.25833766 0 0 Z " fill="#D3A420" transform="translate(107,109)"/>
<path d="M0 0 C2.97 0 5.94 0 9 0 C8.67 2.97 8.34 5.94 8 9 C7.34 8.01 6.68 7.02 6 6 C5.01 6 4.02 6 3 6 C3 4.35 3 2.7 3 1 C2.34 1 1.68 1 1 1 C1 4.63 1 8.26 1 12 C0.67 12 0.34 12 0 12 C0 8.04 0 4.08 0 0 Z " fill="#E8D08C" transform="translate(200,196)"/>
<path d="M0 0 C1.65 0.33 3.3 0.66 5 1 C5.75 3.25 5.75 3.25 6 6 C4.1875 8.3125 4.1875 8.3125 2 10 C1.34 10 0.68 10 0 10 C0 9.34 0 8.68 0 8 C-0.66 8 -1.32 8 -2 8 C-2 8.66 -2 9.32 -2 10 C-3.32 9.67 -4.64 9.34 -6 9 C-3.69 7.35 -1.38 5.7 1 4 C0.01 3.34 -0.98 2.68 -2 2 C-1.34 2 -0.68 2 0 2 C0 1.34 0 0.68 0 0 Z " fill="#E6CB7E" transform="translate(185,223)"/>
<path d="M0 0 C2.0625 -0.375 2.0625 -0.375 5 0 C6.89695827 1.41001586 8.56379019 2.93876039 10.25390625 4.58984375 C12.17277714 6.1395359 13.5931438 6.58393514 16 7 C16 6.34 16 5.68 16 5 C16.99 5 17.98 5 19 5 C19.33 6.65 19.66 8.3 20 10 C19.01 10.495 19.01 10.495 18 11 C18 10.34 18 9.68 18 9 C17.175 9.144375 16.35 9.28875 15.5 9.4375 C10.91997632 8.86499704 9.15684145 6.8759537 5.9296875 3.7265625 C4.03497581 2.03129415 2.31541222 1.01878138 0 0 Z " fill="#D8AF3B" transform="translate(96,160)"/>
<path d="M0 0 C-3.1102074 2.0734716 -5.76224108 3.05321889 -9.3125 4.1875 C-10.42238281 4.55230469 -11.53226563 4.91710937 -12.67578125 5.29296875 C-16.18285704 6.03889204 -18.53873255 5.82211647 -22 5 C-18.72275128 3.17139021 -15.51995601 2.29276609 -11.875 1.4375 C-2.54562044 -0.76368613 -2.54562044 -0.76368613 0 0 Z " fill="#D6AB30" transform="translate(145,2)"/>
<path d="M0 0 C1.98 0 3.96 0 6 0 C6 0.66 6 1.32 6 2 C5.34 2 4.68 2 4 2 C4.02320312 2.91523438 4.04640625 3.83046875 4.0703125 4.7734375 C4.08835937 5.96195313 4.10640625 7.15046875 4.125 8.375 C4.14820312 9.55835938 4.17140625 10.74171875 4.1953125 11.9609375 C4 15 4 15 2 17 C1.01 17 0.02 17 -1 17 C-1 16.34 -1 15.68 -1 15 C-0.01 15 0.98 15 2 15 C2 10.71 2 6.42 2 2 C1.34 2 0.68 2 0 2 C0 1.34 0 0.68 0 0 Z " fill="#D3A324" transform="translate(121,196)"/>
<path d="M0 0 C1.98 0 3.96 0 6 0 C6 0.66 6 1.32 6 2 C5.34 2 4.68 2 4 2 C4.02320312 2.91523438 4.04640625 3.83046875 4.0703125 4.7734375 C4.08835937 5.96195313 4.10640625 7.15046875 4.125 8.375 C4.14820312 9.55835938 4.17140625 10.74171875 4.1953125 11.9609375 C4 15 4 15 2 17 C1.01 17 0.02 17 -1 17 C-1 16.34 -1 15.68 -1 15 C-0.01 15 0.98 15 2 15 C2 10.71 2 6.42 2 2 C1.34 2 0.68 2 0 2 C0 1.34 0 0.68 0 0 Z " fill="#D2A221" transform="translate(81,196)"/>
<path d="M0 0 C1.67542976 0.28604898 3.34385343 0.61781233 5 1 C5 1.66 5 2.32 5 3 C3.68 2.67 2.36 2.34 1 2 C1 2.99 1 3.98 1 5 C1.99 5.33 2.98 5.66 4 6 C3.67 7.65 3.34 9.3 3 11 C2.01 11.33 1.02 11.66 0 12 C-0.99 11.34 -1.98 10.68 -3 10 C-2.67 9.34 -2.34 8.68 -2 8 C-0.515 8.99 -0.515 8.99 1 10 C1 8.68 1 7.36 1 6 C0.34 6 -0.32 6 -1 6 C-1.042721 4.33388095 -1.04063832 2.66617115 -1 1 C-0.67 0.67 -0.34 0.34 0 0 Z " fill="#E0BF61" transform="translate(104,222)"/>
<path d="M0 0 C6.625 -0.25 6.625 -0.25 10 2 C9.625 4.4375 9.625 4.4375 9 7 C8.01 7.495 8.01 7.495 7 8 C6.01 7.67 5.02 7.34 4 7 C4 5.02 4 3.04 4 1 C2.68 1.33 1.36 1.66 0 2 C0 1.34 0 0.68 0 0 Z " fill="#E2C36C" transform="translate(212,196)"/>
<path d="M0 0 C3.65791943 3.45967554 6.50536079 6.97102183 9.25 11.1875 C10.27867187 12.75564453 10.27867187 12.75564453 11.328125 14.35546875 C13 17 13 17 14 19 C13.01 19 12.02 19 11 19 C9.14383245 16.61604039 7.50010663 14.28366768 5.875 11.75 C5.41996094 11.06808594 4.96492187 10.38617188 4.49609375 9.68359375 C2.38237693 6.45343303 0.7847353 3.81939626 0 0 Z " fill="#D2A21F" transform="translate(165,54)"/>
<path d="M0 0 C3.63 0 7.26 0 11 0 C11 1.32 11 2.64 11 4 C10.34 4 9.68 4 9 4 C9 3.01 9 2.02 9 1 C8.01 1.495 8.01 1.495 7 2 C7.99 3.485 7.99 3.485 9 5 C8.625 7.1875 8.625 7.1875 8 9 C5.84622436 6.37801226 4.59927826 4.35595828 4 1 C2.68 1.33 1.36 1.66 0 2 C0 1.34 0 0.68 0 0 Z " fill="#E2C36A" transform="translate(141,196)"/>
<path d="M0 0 C-0.81404297 0.38285156 -0.81404297 0.38285156 -1.64453125 0.7734375 C-10.22775562 5.08821471 -10.22775562 5.08821471 -15.9375 12.3046875 C-16.27329691 14.71269539 -16.27329691 14.71269539 -16 18 C-16.33 18 -16.66 18 -17 18 C-17.51166974 14.86602286 -17.6586431 12.11988838 -17 9 C-12.5076524 3.40812676 -7.20530777 -0.3202359 0 0 Z " fill="#D6A92C" transform="translate(214,130)"/>
<path d="M0 0 C1.80488492 3.53967721 3.46467342 7.14059439 5.125 10.75 C5.66382813 11.92046875 6.20265625 13.0909375 6.7578125 14.296875 C7.16773438 15.18890625 7.57765625 16.0809375 8 17 C7.34 17.33 6.68 17.66 6 18 C5.15556432 16.75747321 4.3248542 15.5056114 3.5 14.25 C3.0359375 13.55390625 2.571875 12.8578125 2.09375 12.140625 C1 10 1 10 1 6 C0.34 6 -0.32 6 -1 6 C-0.67 4.02 -0.34 2.04 0 0 Z " fill="#D6AA31" transform="translate(158,37)"/>
<path d="M0 0 C0.33 0 0.66 0 1 0 C1 2.31 1 4.62 1 7 C1.66 7 2.32 7 3 7 C4.125 12.75 4.125 12.75 3 15 C1.68 14.34 0.36 13.68 -1 13 C-0.67 8.71 -0.34 4.42 0 0 Z " fill="#E7CD83" transform="translate(107,119)"/>
<path d="M0 0 C1.67542976 0.28604898 3.34385343 0.61781233 5 1 C5.25 6.625 5.25 6.625 3 10 C2.34 9.67 1.68 9.34 1 9 C1.66 6.69 2.32 4.38 3 2 C2.34 2 1.68 2 1 2 C1.33 3.32 1.66 4.64 2 6 C1.01 6 0.02 6 -1 6 C-1.042721 4.33388095 -1.04063832 2.66617115 -1 1 C-0.67 0.67 -0.34 0.34 0 0 Z " fill="#D9B03F" transform="translate(147,223)"/>
<path d="M0 0 C6.625 -0.25 6.625 -0.25 10 2 C9.67 3.65 9.34 5.3 9 7 C8.67 6.34 8.34 5.68 8 5 C6.68 5.33 5.36 5.66 4 6 C4 4.35 4 2.7 4 1 C2.68 1.33 1.36 1.66 0 2 C0 1.34 0 0.68 0 0 Z " fill="#E2C36D" transform="translate(103,196)"/>
<path d="M0 0 C0.99 0 1.98 0 3 0 C3.20086443 3.71599191 3.1519437 4.77208445 1 8 C0.34 8 -0.32 8 -1 8 C-1 7.01 -1 6.02 -1 5 C-2.32 4.67 -3.64 4.34 -5 4 C-4.67 3.34 -4.34 2.68 -4 2 C-3.01 2 -2.02 2 -1 2 C-0.67 1.34 -0.34 0.68 0 0 Z " fill="#D3A421" transform="translate(120,168)"/>
<path d="M0 0 C0 0.99 0 1.98 0 3 C0.66 3 1.32 3 2 3 C2 2.01 2 1.02 2 0 C5 1 5 1 7 2 C7 2.66 7 3.32 7 4 C3.04 4 -0.92 4 -5 4 C-5.33 3.34 -5.66 2.68 -6 2 C-3 0 -3 0 0 0 Z " fill="#E0BF5F" transform="translate(150,89)"/>
<path d="M0 0 C3.63 0 7.26 0 11 0 C10.67 1.32 10.34 2.64 10 4 C8.68 4 7.36 4 6 4 C6 3.34 6 2.68 6 2 C5.34 2 4.68 2 4 2 C3.67 2.66 3.34 3.32 3 4 C3 3.34 3 2.68 3 2 C2.01 1.67 1.02 1.34 0 1 C0 0.67 0 0.34 0 0 Z " fill="#D9B03B" transform="translate(81,229)"/>
<path d="M0 0 C1.32 0 2.64 0 4 0 C4 3.3 4 6.6 4 10 C3.01 10 2.02 10 1 10 C0.67 6.7 0.34 3.4 0 0 Z " fill="#DDB959" transform="translate(139,223)"/>
<path d="M0 0 C0.66 0 1.32 0 2 0 C2 1.32 2 2.64 2 4 C1.01 4 0.02 4 -1 4 C-1.66 5.32 -2.32 6.64 -3 8 C-3 6.68 -3 5.36 -3 4 C-5.31 4.33 -7.62 4.66 -10 5 C-9.67 3.68 -9.34 2.36 -9 1 C-8.67 1.66 -8.34 2.32 -8 3 C-5.36 2.67 -2.72 2.34 0 2 C0 1.34 0 0.68 0 0 Z " fill="#E1C266" transform="translate(102,112)"/>
<path d="M0 0 C0.99 0.66 1.98 1.32 3 2 C2.34 2 1.68 2 1 2 C1 2.70125 1 3.4025 1 4.125 C-0.55233238 8.58795558 -4.16489997 10.45782663 -8 13 C-8 12.01 -8 11.02 -8 10 C-4.66666667 7 -4.66666667 7 -2 7 C-1.34 4.69 -0.68 2.38 0 0 Z " fill="#D8AD38" transform="translate(81,92)"/>
<path d="M0 0 C2.31 0.33 4.62 0.66 7 1 C7.33 2.65 7.66 4.3 8 6 C3.25 5.125 3.25 5.125 1 4 C0.375 1.9375 0.375 1.9375 0 0 Z " fill="#CE9A0A" transform="translate(81,89)"/>
<path d="M0 0 C0 1.98 0 3.96 0 6 C-1.65 6.33 -3.3 6.66 -5 7 C-6.125 3.25 -6.125 3.25 -5 1 C-2 0 -2 0 0 0 Z " fill="#E1C267" transform="translate(133,226)"/>
<path d="M0 0 C6.625 -0.25 6.625 -0.25 10 2 C9.67 3.65 9.34 5.3 9 7 C7.68 7.33 6.36 7.66 5 8 C5.66 6.02 6.32 4.04 7 2 C4.69 2 2.38 2 0 2 C0 1.34 0 0.68 0 0 Z " fill="#D7AB32" transform="translate(36,196)"/>
<path d="M0 0 C3.11223313 4.14964417 3.52003578 6.00837213 4 11 C4.66 11 5.32 11 6 11 C6 11.66 6 12.32 6 13 C4.35 13 2.7 13 1 13 C0.67 8.71 0.34 4.42 0 0 Z " fill="#D3A425" transform="translate(95,197)"/>
<path d="M0 0 C1.32 0 2.64 0 4 0 C4.33 2.31 4.66 4.62 5 7 C4.01 7.495 4.01 7.495 3 8 C3 6.02 3 4.04 3 2 C2.34 2 1.68 2 1 2 C1.33 3.32 1.66 4.64 2 6 C1.01 6 0.02 6 -1 6 C-1.042721 4.33388095 -1.04063832 2.66617115 -1 1 C-0.67 0.67 -0.34 0.34 0 0 Z " fill="#D8AE3C" transform="translate(155,223)"/>
<path d="M0 0 C1.32 0 2.64 0 4 0 C3.67 4.62 3.34 9.24 3 14 C2.34 13.67 1.68 13.34 1 13 C1.33 11.68 1.66 10.36 2 9 C1.34 8.67 0.68 8.34 0 8 C0 5.36 0 2.72 0 0 Z " fill="#D8AE38" transform="translate(74,196)"/>
<path d="M0 0 C1.98 0.495 1.98 0.495 4 1 C4 2.98 4 4.96 4 7 C2.35 7 0.7 7 -1 7 C-0.67 4.69 -0.34 2.38 0 0 Z " fill="#E6CC81" transform="translate(110,226)"/>
<path d="M0 0 C0.33 0.99 0.66 1.98 1 3 C1.66 3 2.32 3 3 3 C3 3.66 3 4.32 3 5 C2.34 5 1.68 5 1 5 C0.67 5.99 0.34 6.98 0 8 C-0.33 7.34 -0.66 6.68 -1 6 C-4.02934491 5.34227572 -4.02934491 5.34227572 -7 5 C-7 4.34 -7 3.68 -7 3 C-5.5459375 2.814375 -5.5459375 2.814375 -4.0625 2.625 C-2.5465625 2.315625 -2.5465625 2.315625 -1 2 C-0.67 1.34 -0.34 0.68 0 0 Z " fill="#E8CF89" transform="translate(178,224)"/>
<path d="M0 0 C0.33 0 0.66 0 1 0 C1 1.98 1 3.96 1 6 C1.66 6 2.32 6 3 6 C3.33 7.98 3.66 9.96 4 12 C2.35 12 0.7 12 -1 12 C-0.67 8.04 -0.34 4.08 0 0 Z " fill="#DAB345" transform="translate(213,198)"/>
<path d="M0 0 C0 0.33 0 0.66 0 1 C-7.04321983 2.59295252 -12.85650045 3.1710655 -20 2 C-20 1.67 -20 1.34 -20 1 C-19.24074219 0.93941406 -18.48148437 0.87882813 -17.69921875 0.81640625 C-16.70535156 0.73261719 -15.71148437 0.64882812 -14.6875 0.5625 C-13.70136719 0.48128906 -12.71523437 0.40007812 -11.69921875 0.31640625 C-3.32572993 -0.66514599 -3.32572993 -0.66514599 0 0 Z " fill="#E3C46D" transform="translate(100,161)"/>
<path d="M0 0 C2.76050338 2.76050338 2.46674524 5.20055984 3 9 C3.99 10.485 3.99 10.485 5 12 C4.01 12 3.02 12 2 12 C-1.57142857 4.71428571 -1.57142857 4.71428571 0 0 Z " fill="#D8AE3C" transform="translate(146,15)"/>
<path d="M0 0 C0.33 1.32 0.66 2.64 1 4 C1.66 4 2.32 4 3 4 C2.67 4.99 2.34 5.98 2 7 C0.02 7 -1.96 7 -4 7 C-4 5.68 -4 4.36 -4 3 C-3.01 3 -2.02 3 -1 3 C-0.67 2.01 -0.34 1.02 0 0 Z " fill="#F9F2E0" transform="translate(170,201)"/>
<path d="M0 0 C1.32 0 2.64 0 4 0 C3.125 4.875 3.125 4.875 2 6 C0.33382885 6.04063832 -1.33388095 6.042721 -3 6 C-3.33 4.68 -3.66 3.36 -4 2 C-1.525 2.99 -1.525 2.99 1 4 C0.67 2.68 0.34 1.36 0 0 Z " fill="#D8AF39" transform="translate(230,204)"/>
<path d="M0 0 C3 1 3 1 4.25 3.1875 C5.12860506 6.48226898 4.76557916 8.70800962 4 12 C3.01 12.33 2.02 12.66 1 13 C1.20625 11.96875 1.4125 10.9375 1.625 9.875 C2.01194403 5.8765784 1.51883076 3.66306243 0 0 Z " fill="#D9B03C" transform="translate(47,139)"/>
<path d="M0 0 C0 0.66 0 1.32 0 2 C1.32 2 2.64 2 4 2 C3.67 3.65 3.34 5.3 3 7 C2.34 7 1.68 7 1 7 C1 6.01 1 5.02 1 4 C0.071875 4.309375 0.071875 4.309375 -0.875 4.625 C-1.57625 4.74875 -2.2775 4.8725 -3 5 C-3.66 4.34 -4.32 3.68 -5 3 C-2.25 0 -2.25 0 0 0 Z " fill="#E2C36B" transform="translate(114,112)"/>
<path d="M0 0 C3.3 0 6.6 0 10 0 C10.33 0.66 10.66 1.32 11 2 C10.01 2.33 9.02 2.66 8 3 C8 2.34 8 1.68 8 1 C3.67628107 3.02633069 3.67628107 3.02633069 0 6 C0 4.02 0 2.04 0 0 Z " fill="#E6CA7D" transform="translate(107,109)"/>
<path d="M0 0 C1.98 0 3.96 0 6 0 C5.67 2.31 5.34 4.62 5 7 C3.29115995 5.37660195 1.62553283 3.70680947 0 2 C0 1.34 0 0.68 0 0 Z " fill="#D09F17" transform="translate(141,10)"/>
<path d="M0 0 C1.051875 0.61875 2.10375 1.2375 3.1875 1.875 C6.05015677 3.51579108 8.89207246 4.86984453 12 6 C12 6.33 12 6.66 12 7 C5.06712565 6.34595525 5.06712565 6.34595525 2 3 C-0.60611077 2.27802838 -0.60611077 2.27802838 -3 2 C-2.01 1.34 -1.02 0.68 0 0 Z " fill="#D9B13D" transform="translate(153,169)"/>
<path d="M0 0 C0 1.98 0 3.96 0 6 C-0.99 5.67 -1.98 5.34 -3 5 C-3 4.01 -3 3.02 -3 2 C-4.98 2 -6.96 2 -9 2 C-5.5647952 -0.29013653 -4.014669 -0.17842973 0 0 Z " fill="#D9B13E" transform="translate(107,109)"/>
<path d="M0 0 C1.32 0 2.64 0 4 0 C4 0.66 4 1.32 4 2 C3.34 2 2.68 2 2 2 C2 3.65 2 5.3 2 7 C0.68 6.67 -0.64 6.34 -2 6 C-1.125 1.125 -1.125 1.125 0 0 Z " fill="#DEBA55" transform="translate(123,226)"/>
<path d="M0 0 C0.66 0 1.32 0 2 0 C1.67 1.32 1.34 2.64 1 4 C-2.3 4 -5.6 4 -9 4 C-9 3.34 -9 2.68 -9 2 C-6.03 2 -3.06 2 0 2 C0 1.34 0 0.68 0 0 Z " fill="#DBB445" transform="translate(138,206)"/>
<path d="M0 0 C2.97 0.495 2.97 0.495 6 1 C5.67 2.98 5.34 4.96 5 7 C4.34 6.01 3.68 5.02 3 4 C2.01 4 1.02 4 0 4 C0 2.68 0 1.36 0 0 Z " fill="#F3E7C5" transform="translate(133,198)"/>
<path d="M0 0 C0.28875 0.639375 0.5775 1.27875 0.875 1.9375 C1.82823451 4.15206079 1.82823451 4.15206079 4 5 C3.67 3.35 3.34 1.7 3 0 C3.99 0.33 4.98 0.66 6 1 C5.67 2.65 5.34 4.3 5 6 C3.35 5.67 1.7 5.34 0 5 C0 3.35 0 1.7 0 0 Z " fill="#D4A627" transform="translate(162,227)"/>
<path d="M0 0 C1.32 0 2.64 0 4 0 C5.125 3.75 5.125 3.75 4 6 C3.34 6 2.68 6 2 6 C2 5.34 2 4.68 2 4 C1.34 4 0.68 4 0 4 C0 2.68 0 1.36 0 0 Z " fill="#DBB444" transform="translate(179,223)"/>
<path d="M0 0 C0.66 0 1.32 0 2 0 C1.67 1.32 1.34 2.64 1 4 C-2.3 4 -5.6 4 -9 4 C-8.67 3.34 -8.34 2.68 -8 2 C-5.36 2 -2.72 2 0 2 C0 1.34 0 0.68 0 0 Z " fill="#DBB547" transform="translate(208,206)"/>
<path d="M0 0 C0.99 0 1.98 0 3 0 C2.814375 0.78375 2.62875 1.5675 2.4375 2.375 C1.74037734 4.97089775 1.74037734 4.97089775 3 7 C2.34 7 1.68 7 1 7 C0.67 7.99 0.34 8.98 0 10 C0 6.7 0 3.4 0 0 Z " fill="#F3E7C4" transform="translate(40,198)"/>
<path d="M0 0 C1.98 0 3.96 0 6 0 C6 0.66 6 1.32 6 2 C5.34 2 4.68 2 4 2 C4 4.97 4 7.94 4 11 C3.67 11 3.34 11 3 11 C3 8.03 3 5.06 3 2 C2.01 2 1.02 2 0 2 C0 1.34 0 0.68 0 0 Z " fill="#D3A42A" transform="translate(48,196)"/>
<path d="M0 0 C0 2 0 4 0 6 C1.65 6 3.3 6 5 6 C3.25 7.125 3.25 7.125 1 8 C-1.25 7.125 -1.25 7.125 -3 6 C-2.42655063 3.13275314 -2.1385485 2.1385485 0 0 Z " fill="#DBB549" transform="translate(207,108)"/>
<path d="M0 0 C0.33 0 0.66 0 1 0 C1.04898438 0.68707031 1.09796875 1.37414062 1.1484375 2.08203125 C1.22320312 2.98308594 1.29796875 3.88414063 1.375 4.8125 C1.44460937 5.70582031 1.51421875 6.59914063 1.5859375 7.51953125 C1.86645036 10.24398499 1.86645036 10.24398499 4 13 C3.01 13 2.02 13 1 13 C-1.48887372 8.31506124 -0.85687773 5.0555786 0 0 Z " fill="#DCB752" transform="translate(201,85)"/>
<path d="M0 0 C0.66 0 1.32 0 2 0 C1.67 1.32 1.34 2.64 1 4 C-1.97 4 -4.94 4 -8 4 C-7.67 3.34 -7.34 2.68 -7 2 C-4.69 2 -2.38 2 0 2 C0 1.34 0 0.68 0 0 Z " fill="#DAB344" transform="translate(183,206)"/>
<path d="M0 0 C1.98 0.99 1.98 0.99 4 2 C4 2.66 4 3.32 4 4 C4.66 4 5.32 4 6 4 C5.67 5.32 5.34 6.64 5 8 C0 2.25 0 2.25 0 0 Z " fill="#D09D15" transform="translate(70,201)"/>
<path d="M0 0 C0.99 0.33 1.98 0.66 3 1 C3 3.64 3 6.28 3 9 C0.90250005 6.64031256 0.03094296 5.45383006 -0.1875 2.25 C-0.125625 1.5075 -0.06375 0.765 0 0 Z " fill="#CB9302" transform="translate(104,118)"/>
<path d="M0 0 C0.66 0 1.32 0 2 0 C2.33 2.31 2.66 4.62 3 7 C1.35 7.66 -0.3 8.32 -2 9 C-1.34 8.01 -0.68 7.02 0 6 C0 5.01 0 4.02 0 3 C0 2.01 0 1.02 0 0 Z " fill="#ECD89E" transform="translate(156,225)"/>
<path d="M0 0 C0 0.99 0 1.98 0 3 C0.33 3.33 0.66 3.66 1 4 C1 4.66 1 5.32 1 6 C-0.32 6.33 -1.64 6.66 -3 7 C-3 3 -3 3 -1.5 1.25 C-1.005 0.8375 -0.51 0.425 0 0 Z " fill="#EDD9A1" transform="translate(83,223)"/>
<path d="M0 0 C0.99 0 1.98 0 3 0 C3 0.99 3 1.98 3 3 C3.66 3 4.32 3 5 3 C5 3.66 5 4.32 5 5 C3.35 5 1.7 5 0 5 C0 3.35 0 1.7 0 0 Z " fill="#F7EFD8" transform="translate(133,203)"/>
<path d="M0 0 C0.33 0.99 0.66 1.98 1 3 C-2 5 -2 5 -5 5 C-5 3.68 -5 2.36 -5 1 C-3.35 0.67 -1.7 0.34 0 0 Z " fill="#F6ECD1" transform="translate(171,197)"/>
<path d="M0 0 C1.98 0 3.96 0 6 0 C5.34 1.65 4.68 3.3 4 5 C2 3.625 2 3.625 0 2 C0 1.34 0 0.68 0 0 Z " fill="#CE9907" transform="translate(93,116)"/>
<path d="M0 0 C0.33 1.32 0.66 2.64 1 4 C-0.9375 6.25 -0.9375 6.25 -3 8 C-3.99 7.67 -4.98 7.34 -6 7 C-4.02 4.69 -2.04 2.38 0 0 Z " fill="#D7AC37" transform="translate(65,113)"/>
<path d="M0 0 C0.33 0.99 0.66 1.98 1 3 C0 4 0 4 -2.06640625 4.09765625 C-2.89011719 4.08605469 -3.71382812 4.07445312 -4.5625 4.0625 C-5.38878906 4.05347656 -6.21507812 4.04445312 -7.06640625 4.03515625 C-7.70449219 4.02355469 -8.34257812 4.01195312 -9 4 C-8.67 3.34 -8.34 2.68 -8 2 C-5.67284 1.62599214 -3.33882138 1.29235267 -1 1 C-0.67 0.67 -0.34 0.34 0 0 Z " fill="#DAB242" transform="translate(196,206)"/>
<path d="M0 0 C2.475 0.495 2.475 0.495 5 1 C5 1.99 5 2.98 5 4 C3.35 4 1.7 4 0 4 C0 2.68 0 1.36 0 0 Z " fill="#FAF6E9" transform="translate(203,204)"/>
<path d="M0 0 C1.32 0 2.64 0 4 0 C4.33 0.99 4.66 1.98 5 3 C4.34 3.66 3.68 4.32 3 5 C2.34 5 1.68 5 1 5 C0.67 3.35 0.34 1.7 0 0 Z " fill="#FBF8EE" transform="translate(92,205)"/>
<path d="M0 0 C1.32 0.33 2.64 0.66 4 1 C4 2.32 4 3.64 4 5 C2.68 5 1.36 5 0 5 C0 3.35 0 1.7 0 0 Z " fill="#F5EBCF" transform="translate(107,203)"/>
<path d="M0 0 C1.32 0.33 2.64 0.66 4 1 C4.33 2.65 4.66 4.3 5 6 C4.01 6.495 4.01 6.495 3 7 C2.01 4.69 1.02 2.38 0 0 Z " fill="#F5EBCF" transform="translate(145,198)"/>
<path d="M0 0 C2.475 0.99 2.475 0.99 5 2 C2.64031256 4.09749995 1.45383006 4.96905704 -1.75 5.1875 C-2.86375 5.0946875 -2.86375 5.0946875 -4 5 C-3.67 4.34 -3.34 3.68 -3 3 C-2.01 3.33 -1.02 3.66 0 4 C0 2.68 0 1.36 0 0 Z " fill="#F0E0B4" transform="translate(108,111)"/>
<path d="M0 0 C2.475 0.99 2.475 0.99 5 2 C5 3.65 5 5.3 5 7 C4.67 6.01 4.34 5.02 4 4 C1.98491642 3.26676204 1.98491642 3.26676204 0 3 C0 2.01 0 1.02 0 0 Z " fill="#F6EED5" transform="translate(105,224)"/>
<path d="M0 0 C0.66 0.66 1.32 1.32 2 2 C3.31747324 2.69748583 4.64914193 3.36959957 6 4 C0.375 5.125 0.375 5.125 -3 4 C-3 3.34 -3 2.68 -3 2 C-2.01 2 -1.02 2 0 2 C0 1.34 0 0.68 0 0 Z " fill="#E7CD82" transform="translate(92,225)"/>
<path d="M0 0 C2.31 0.33 4.62 0.66 7 1 C7 1.99 7 2.98 7 4 C5.68 4 4.36 4 3 4 C3 3.34 3 2.68 3 2 C2.01 1.67 1.02 1.34 0 1 C0 0.67 0 0.34 0 0 Z " fill="#F5EBCE" transform="translate(111,110)"/>
<path d="M0 0 C3.37503669 1.1858237 5.64722731 2.27573689 8 5 C7.67 5.99 7.34 6.98 7 8 C4.35247996 5.42215154 2.05567935 3.08351902 0 0 Z " fill="#CF9C15" transform="translate(191,73)"/>
<path d="M0 0 C1.40182371 2.61673759 2.60495559 5.0371669 3 8 C2.34 8.66 1.68 9.32 1 10 C1 8.68 1 7.36 1 6 C0.34 6 -0.32 6 -1 6 C-0.67 4.02 -0.34 2.04 0 0 Z " fill="#DBB54D" transform="translate(158,37)"/>
</svg>
